<?xml version="1.0" encoding="utf-8"?>
<!-- Generator: Adobe Illustrator 23.0.1, SVG Export Plug-In . SVG Version: 6.00 Build 0)  -->
<svg version="1.1" id="Calque_1" xmlns="http://www.w3.org/2000/svg" xmlns:xlink="http://www.w3.org/1999/xlink" x="0px" y="0px"
	 viewBox="0 0 17.28 17.97" style="enable-background:new 0 0 17.28 17.97;" xml:space="preserve">
<g>
	<path d="M8.64,5.9c-1.7,0-3.09,1.39-3.09,3.09s1.39,3.09,3.09,3.09s3.09-1.39,3.09-3.09S10.34,5.9,8.64,5.9z M8.64,11.08
		c-1.15,0-2.09-0.94-2.09-2.09S7.49,6.9,8.64,6.9s2.09,0.94,2.09,2.09S9.79,11.08,8.64,11.08z"/>
	<path d="M17.12,11.16c-0.07-0.12-0.2-0.21-0.34-0.23c-0.94-0.17-1.63-0.99-1.63-1.94c0-0.95,0.68-1.77,1.62-1.94
		c0.14-0.03,0.26-0.11,0.34-0.23c0.07-0.12,0.09-0.27,0.05-0.41c-0.39-1.27-1.06-2.45-1.96-3.43c-0.1-0.1-0.24-0.15-0.37-0.16
		c-0.14,0-0.28,0.06-0.37,0.17c-0.63,0.72-1.68,0.89-2.5,0.4C11.15,2.9,10.8,1.89,11.13,1c0.05-0.13,0.04-0.28-0.03-0.41
		c-0.07-0.13-0.18-0.22-0.32-0.25C9.34-0.02,7.95-0.01,6.56,0.32C6.43,0.35,6.31,0.44,6.24,0.57C6.17,0.69,6.16,0.84,6.21,0.97
		c0.33,0.9-0.03,1.9-0.86,2.38c-0.82,0.48-1.87,0.3-2.49-0.42C2.77,2.83,2.63,2.76,2.49,2.76C2.33,2.75,2.21,2.82,2.11,2.92
		c-0.93,1-1.62,2.2-2.01,3.49C0.06,6.55,0.08,6.69,0.16,6.81c0.07,0.12,0.2,0.21,0.34,0.23c0.94,0.17,1.63,0.99,1.63,1.94
		c0,0.95-0.68,1.77-1.62,1.94c-0.14,0.03-0.26,0.11-0.34,0.23c-0.07,0.12-0.09,0.27-0.05,0.41c0.39,1.27,1.06,2.45,1.96,3.43
		c0.1,0.1,0.26,0.19,0.37,0.16c0.14,0,0.28-0.06,0.37-0.17c0.63-0.72,1.68-0.89,2.5-0.4c0.82,0.49,1.17,1.49,0.84,2.38
		c-0.05,0.13-0.04,0.28,0.03,0.41c0.07,0.13,0.18,0.22,0.32,0.25c0.72,0.18,1.44,0.27,2.14,0.27c0.69,0,1.39-0.08,2.08-0.25
		c0.14-0.03,0.26-0.12,0.32-0.25s0.08-0.27,0.03-0.41c-0.33-0.9,0.03-1.9,0.86-2.38c0.82-0.48,1.87-0.3,2.49,0.42
		c0.09,0.11,0.23,0.17,0.37,0.17c0.11-0.02,0.28-0.06,0.38-0.16c0.93-1,1.62-2.2,2.01-3.49C17.22,11.43,17.2,11.28,17.12,11.16z
		 M14.77,13.99c-0.94-0.75-2.27-0.86-3.34-0.24c-1.07,0.63-1.63,1.84-1.44,3.03c-0.91,0.16-1.81,0.16-2.75-0.02
		c0.2-1.19-0.35-2.41-1.41-3.04c-1.06-0.63-2.39-0.53-3.34,0.21c-0.53-0.66-0.95-1.4-1.25-2.18c1.12-0.44,1.89-1.53,1.89-2.77
		c0-1.24-0.77-2.33-1.9-2.77c0.3-0.8,0.74-1.56,1.29-2.23c0.94,0.75,2.27,0.86,3.34,0.24c1.07-0.63,1.63-1.84,1.44-3.03
		C8.2,1.03,9.1,1.03,10.05,1.2c-0.2,1.19,0.35,2.41,1.41,3.04c1.07,0.63,2.39,0.53,3.34-0.21c0.53,0.66,0.95,1.4,1.25,2.18
		c-1.12,0.44-1.89,1.53-1.89,2.77c0,1.25,0.77,2.33,1.9,2.77C15.75,12.56,15.32,13.32,14.77,13.99z"/>
</g>
</svg>
