<?xml version="1.0" encoding="utf-8"?>
<!-- Generator: Adobe Illustrator 24.1.2, SVG Export Plug-In . SVG Version: 6.00 Build 0)  -->
<svg version="1.1" id="Calque_2" xmlns="http://www.w3.org/2000/svg" x="0px" y="0px"
     viewBox="0 0 17.3 18" style="enable-background:new 0 0 17.3 18;" xml:space="preserve">
<path d="M30.5,19.9L30.5,19.9c-0.1-0.2-0.4-0.4-0.6-0.4C28.2,19.2,27,17.7,27,16s1.2-3.2,2.9-3.5c0.2-0.1,0.5-0.2,0.6-0.4
	c0.1-0.2,0.2-0.5,0.1-0.7c-0.7-2.3-1.9-4.4-3.5-6.1C26.9,5.1,26.6,5,26.4,5c-0.2,0-0.5,0.1-0.7,0.3c-1.1,1.3-3,1.6-4.5,0.7
	c-1.4-0.9-2.1-2.7-1.5-4.3c0.1-0.2,0.1-0.5-0.1-0.7c-0.1-0.2-0.3-0.4-0.6-0.4c-2.6-0.6-5-0.6-7.5,0c-0.2,0.1-0.4,0.2-0.6,0.4
	C11,1.2,11,1.5,11.1,1.7C11.6,3.3,11,5.1,9.5,6C8.1,6.8,6.2,6.5,5.1,5.2C4.9,5,4.7,4.9,4.4,4.9C4.1,4.9,3.9,5,3.8,5.2
	C2.1,7,0.9,9.1,0.2,11.4c-0.1,0.2,0,0.5,0.1,0.7c0.1,0.2,0.4,0.4,0.6,0.4c1.7,0.3,2.9,1.8,2.9,3.5c0,1.7-1.2,3.2-2.9,3.5
	c-0.2,0.1-0.5,0.2-0.6,0.4c-0.1,0.2-0.2,0.5-0.1,0.7c0.7,2.3,1.9,4.4,3.5,6.1C3.9,26.9,4.2,27,4.4,27c0.2,0,0.5-0.1,0.7-0.3
	c1.1-1.3,3-1.6,4.5-0.7s2.1,2.7,1.5,4.2c-0.1,0.2-0.1,0.5,0.1,0.7c0.1,0.2,0.3,0.4,0.6,0.4c1.3,0.3,2.6,0.5,3.8,0.5
	c1.2,0,2.5-0.1,3.7-0.4c0.2-0.1,0.5-0.2,0.6-0.4c0.1-0.2,0.1-0.5,0.1-0.7c-0.6-1.6,0.1-3.4,1.5-4.2c1.5-0.9,3.3-0.5,4.4,0.7
	c0.2,0.2,0.4,0.3,0.7,0.3c0.2,0,0.5-0.1,0.7-0.3c1.7-1.8,2.9-3.9,3.6-6.2C30.7,20.4,30.6,20.1,30.5,19.9z M15.4,20.7
	c-2.6,0-4.7-2.1-4.7-4.7c0-2.6,2.1-4.7,4.7-4.7c2.6,0,4.7,2.1,4.7,4.7C20.1,18.6,18,20.7,15.4,20.7z"/>
</svg>
