<?xml version="1.0" encoding="utf-8"?>
<!-- Generator: Adobe Illustrator 23.0.1, SVG Export Plug-In . SVG Version: 6.00 Build 0)  -->
<svg version="1.1" id="Calque_1" xmlns="http://www.w3.org/2000/svg" xmlns:xlink="http://www.w3.org/1999/xlink" x="0px" y="0px"
	 viewBox="0 0 24.05 20.81" style="enable-background:new 0 0 24.05 20.81;" xml:space="preserve">
<g>
	<path d="M21.4,20.76H2.68c-0.95,0-1.8-0.5-2.27-1.33s-0.46-1.81,0.03-2.63L9.71,1.38c0.47-0.79,1.31-1.26,2.23-1.27
		c0.93,0.01,1.76,0.46,2.24,1.25l9.46,15.42c0.5,0.82,0.52,1.8,0.05,2.64S22.36,20.76,21.4,20.76z M11.94,2.42
		c-0.03-0.02-0.19,0.03-0.27,0.15l0,0L2.41,17.98c-0.08,0.13-0.04,0.24,0,0.31c0.04,0.07,0.12,0.16,0.27,0.16H21.4
		c0.15,0,0.23-0.09,0.27-0.16c0.04-0.07,0.07-0.19-0.01-0.31L12.21,2.57C12.13,2.44,12.02,2.42,11.94,2.42z M10.69,1.98L10.69,1.98
		L10.69,1.98z"/>
</g>
<g>
	<g>
		<path d="M10.7,15.87c0-0.33,0.12-0.61,0.36-0.85s0.53-0.36,0.87-0.36c0.33,0,0.62,0.11,0.87,0.34c0.25,0.23,0.37,0.5,0.37,0.83
			c0,0.33-0.12,0.61-0.36,0.85c-0.24,0.24-0.53,0.36-0.87,0.36c-0.16,0-0.32-0.03-0.47-0.09c-0.15-0.06-0.28-0.14-0.39-0.25
			c-0.11-0.1-0.2-0.23-0.27-0.37C10.74,16.19,10.7,16.03,10.7,15.87z M12.87,13.52h-1.85V6.01h1.85V13.52z"/>
	</g>
</g>
</svg>
