<?xml version="1.0" encoding="utf-8"?>
<!-- Generator: Adobe Illustrator 23.0.1, SVG Export Plug-In . SVG Version: 6.00 Build 0)  -->
<svg version="1.1" id="Calque_1" xmlns="http://www.w3.org/2000/svg" x="0px" y="0px"
     viewBox="0 0 14.47 14.81" style="enable-background:new 0 0 14.47 14.81;" xml:space="preserve">
<path d="M12.9,1.69h-1.03V0.6c0-0.28-0.22-0.5-0.5-0.5s-0.5,0.22-0.5,0.5v1.1H3.65V0.6c0-0.28-0.22-0.5-0.5-0.5s-0.5,0.22-0.5,0.5
	v1.1h-1.1c-0.83,0-1.5,0.67-1.5,1.5v10.05c0,0.83,0.67,1.5,1.5,1.5H12.9c0.83,0,1.5-0.67,1.5-1.5V3.19
	C14.4,2.37,13.73,1.69,12.9,1.69z M1.55,2.69h1.1V3.4c0,0.28,0.22,0.5,0.5,0.5s0.5-0.22,0.5-0.5V2.69h7.23V3.4
	c0,0.28,0.22,0.5,0.5,0.5s0.5-0.22,0.5-0.5V2.69h1.03c0.28,0,0.5,0.22,0.5,0.5v1.72H1.05V3.19C1.05,2.92,1.27,2.69,1.55,2.69z
	 M12.9,13.74H1.55c-0.28,0-0.5-0.22-0.5-0.5V5.91H13.4v7.33C13.4,13.52,13.18,13.74,12.9,13.74z"/>
</svg>
