<?xml version="1.0" encoding="utf-8"?>
<!-- Generator: Adobe Illustrator 23.0.1, SVG Export Plug-In . SVG Version: 6.00 Build 0)  -->
<svg version="1.1" id="Calque_1" xmlns="http://www.w3.org/2000/svg" x="0px" y="0px"
     viewBox="0 0 19.71 19.71" style="enable-background:new 0 0 19.71 19.71;" xml:space="preserve">
<path d="M11.12,9.87l8.33-8.33c0.33-0.33,0.33-0.87,0-1.2l-0.06-0.06c-0.33-0.33-0.87-0.33-1.2,0L9.86,8.61L1.54,0.29
	c-0.33-0.33-0.87-0.33-1.2,0L0.28,0.34c-0.33,0.33-0.33,0.87,0,1.2l8.33,8.33l-8.33,8.33c-0.33,0.33-0.33,0.87,0,1.2l0.06,0.06
	c0.33,0.33,0.87,0.33,1.2,0l8.33-8.33l8.33,8.33c0.33,0.33,0.87,0.33,1.2,0l0.06-0.06c0.33-0.33,0.33-0.87,0-1.2L11.12,9.87z"/>
</svg>
