<?xml version="1.0" encoding="utf-8"?>
<!-- Generator: Adobe Illustrator 23.0.1, SVG Export Plug-In . SVG Version: 6.00 Build 0)  -->
<svg version="1.1" id="Calque_1" xmlns="http://www.w3.org/2000/svg" xmlns:xlink="http://www.w3.org/1999/xlink" x="0px" y="0px"
	 viewBox="0 0 14.19 11.48" style="enable-background:new 0 0 14.19 11.48;" xml:space="preserve">
<style type="text/css">
	.st0{fill:#020203;}
</style>
<g>
	<g>
		<path class="st0" d="M7.11,10.47c-2.55,0-4.63-2.04-4.71-4.58h0.92c0.42,0,0.65-0.49,0.38-0.81L2.29,3.39
			c-0.2-0.24-0.56-0.24-0.76,0L0.11,5.08C-0.15,5.4,0.07,5.89,0.49,5.89h0.9c0.08,3.09,2.61,5.58,5.72,5.58
			c1.53,0,2.97-0.6,4.05-1.68c0,0,0.24-0.4-0.07-0.71s-0.63,0-0.63,0C9.56,9.98,8.38,10.47,7.11,10.47z"/>
	</g>
	<g>
		<path class="st0" d="M13.68,5.53h-0.85c-0.11-3.06-2.63-5.52-5.72-5.52c-1.53,0-2.97,0.6-4.05,1.68c0,0-0.3,0.4,0.02,0.71
			s0.69,0,0.69,0c0.89-0.89,2.08-1.38,3.34-1.38c2.53,0,4.59,2.01,4.7,4.52h-0.97c-0.42,0-0.65,0.49-0.38,0.81l1.42,1.69
			c0.2,0.24,0.56,0.24,0.76,0l1.42-1.69C14.33,6.02,14.1,5.53,13.68,5.53z"/>
	</g>
</g>
</svg>
