<?xml version="1.0" encoding="utf-8"?>
<!-- Generator: Adobe Illustrator 23.0.1, SVG Export Plug-In . SVG Version: 6.00 Build 0)  -->
<svg version="1.1" id="Calque_1" xmlns="http://www.w3.org/2000/svg" xmlns:xlink="http://www.w3.org/1999/xlink" x="0px" y="0px"
	 viewBox="0 0 11.67 13.36" style="enable-background:new 0 0 11.67 13.36;" xml:space="preserve">
<style type="text/css">
	.st0{fill:#020203;}
</style>
<g>
	<path class="st0" d="M11.15,2.25H8.47V1.47c0-0.81-0.65-1.46-1.46-1.46H4.66c-0.8,0-1.46,0.66-1.46,1.46v0.77H0.53
		c-0.28,0-0.5,0.22-0.5,0.5s0.22,0.5,0.5,0.5H1.3v7.77c0,1.28,1.04,2.33,2.31,2.33h4.46c1.27,0,2.31-1.04,2.31-2.33V3.25h0.77
		c0.28,0,0.5-0.22,0.5-0.5S11.43,2.25,11.15,2.25z M4.2,1.47c0-0.26,0.2-0.46,0.46-0.46h2.36c0.25,0,0.46,0.21,0.46,0.46v0.77H4.2
		V1.47z M9.38,11.02c0,0.73-0.59,1.33-1.31,1.33H3.61c-0.72,0-1.31-0.59-1.31-1.33V3.25h7.08V11.02z"/>
	<path class="st0" d="M5.84,10.52c0.28,0,0.5-0.22,0.5-0.5V5.26c0-0.28-0.22-0.5-0.5-0.5s-0.5,0.22-0.5,0.5v4.76
		C5.34,10.29,5.56,10.52,5.84,10.52z"/>
	<path class="st0" d="M3.86,10.52c0.28,0,0.5-0.22,0.5-0.5V5.26c0-0.28-0.22-0.5-0.5-0.5s-0.5,0.22-0.5,0.5v4.76
		C3.36,10.29,3.59,10.52,3.86,10.52z"/>
	<path class="st0" d="M7.9,10.52c0.28,0,0.5-0.22,0.5-0.5V5.26c0-0.28-0.22-0.5-0.5-0.5s-0.5,0.22-0.5,0.5v4.76
		C7.4,10.29,7.62,10.52,7.9,10.52z"/>
</g>
</svg>
