<?xml version="1.0" encoding="utf-8"?>
<!-- Generator: Adobe Illustrator 23.0.1, SVG Export Plug-In . SVG Version: 6.00 Build 0)  -->
<svg version="1.1" id="Calque_1" xmlns="http://www.w3.org/2000/svg" x="0px" y="0px"
     viewBox="0 0 10.05 12.38" style="enable-background:new 0 0 10.05 12.38;" xml:space="preserve">
<g>
	<path d="M8.86,11.36H1.18c-0.28,0-0.5,0.22-0.5,0.5s0.22,0.5,0.5,0.5h7.68c0.28,0,0.5-0.22,0.5-0.5S9.14,11.36,8.86,11.36z"/>
	<path d="M9.89,4.83c-0.2-0.2-0.51-0.2-0.71,0L5.52,8.49V0.52c0-0.28-0.22-0.5-0.5-0.5s-0.5,0.22-0.5,0.5v8L0.86,4.86
		c-0.2-0.2-0.51-0.2-0.71,0s-0.2,0.51,0,0.71l4.5,4.5c0.09,0.09,0.22,0.15,0.35,0.15s0.26-0.05,0.35-0.15l4.52-4.52
		C10.08,5.35,10.08,5.03,9.89,4.83z"/>
</g>
</svg>
