<?xml version="1.0" encoding="utf-8"?>
<!-- Generator: Adobe Illustrator 23.0.1, SVG Export Plug-In . SVG Version: 6.00 Build 0)  -->
<svg version="1.1" id="Calque_1" xmlns="http://www.w3.org/2000/svg" xmlns:xlink="http://www.w3.org/1999/xlink" x="0px" y="0px"
	 viewBox="0 0 40.8 40.8" style="enable-background:new 0 0 40.8 40.8;" xml:space="preserve">
<g>
	<path d="M38.69,16.74l-2.91-0.02c-0.4-1.64-1.05-3.2-1.95-4.63l2.07-2.07c0.78-0.78,0.78-2.04,0-2.81l-2.34-2.34
		c-0.77-0.78-2.04-0.78-2.81,0l-2.09,2.07c-1.43-0.87-2.98-1.51-4.63-1.89V2.08c0-1.1-0.89-1.99-1.99-1.99h-3.31
		c-1.1,0-1.99,0.89-1.99,1.99l-0.02,2.96c-1.64,0.39-3.19,1.02-4.62,1.91l-2.09-2.09c-0.75-0.75-2.06-0.75-2.81,0L4.86,7.2
		c-0.78,0.78-0.78,2.04,0,2.81l2.06,2.08c-0.89,1.43-1.54,2.99-1.93,4.64H2.07c-1.1,0-1.99,0.89-1.99,1.99v3.31
		c0,1.1,0.89,1.99,1.99,1.99l2.88,0.02c0.38,1.66,1.03,3.23,1.93,4.68l-2.02,2.02c-0.78,0.78-0.78,2.04,0,2.81l2.34,2.34
		c0.75,0.75,2.06,0.75,2.81,0l2.02-1.99c1.45,0.9,3.03,1.56,4.71,1.94v2.84c0,1.1,0.89,1.99,1.99,1.99h3.31
		c1.1,0,1.99-0.89,1.99-1.99l0.02-2.83c1.66-0.39,3.24-1.05,4.7-1.96l2.01,2.01c0.78,0.78,2.04,0.78,2.81,0l2.34-2.34
		c0.78-0.78,0.78-2.04,0-2.81l-2.01-2.03c0.88-1.44,1.53-3.02,1.9-4.69h2.89c1.1,0,1.99-0.89,1.99-1.99v-3.31
		C40.68,17.63,39.78,16.74,38.69,16.74z M38.68,22.03H35.8c-0.93,0-1.73,0.64-1.94,1.56c-0.34,1.45-0.9,2.82-1.67,4.08
		c-0.49,0.8-0.38,1.81,0.28,2.46l2.02,2.01l-2.33,2.34l-2.01-2.01c-0.66-0.66-1.67-0.76-2.48-0.27c-1.27,0.79-2.64,1.36-4.1,1.7
		c-0.92,0.22-1.56,1.01-1.56,1.94l0.01,2.83l-3.3,0.01v-2.84c0-0.93-0.64-1.72-1.56-1.94c-1.45-0.34-2.83-0.92-4.1-1.7
		C12.75,32,12.37,31.9,12,31.9c-0.51,0-1.02,0.2-1.4,0.58l-2,2.01l-2.34-2.33l2.02-2.02c0.65-0.65,0.76-1.67,0.27-2.46
		c-0.77-1.26-1.33-2.63-1.67-4.08c-0.21-0.92-1.01-1.57-1.94-1.57l-2.88,0.01l-0.01-3.3h2.92c0.92,0,1.72-0.64,1.94-1.55
		c0.34-1.43,0.91-2.79,1.69-4.04c0.5-0.8,0.39-1.82-0.27-2.48L6.27,8.62L8.6,6.27l2.09,2.09c0.65,0.65,1.67,0.77,2.47,0.28
		c1.24-0.76,2.6-1.32,4.03-1.66c0.92-0.22,1.56-1.01,1.56-1.94l-0.01-2.96l3.3-0.01v2.97c0,0.93,0.64,1.72,1.56,1.94
		c1.43,0.34,2.78,0.89,4.03,1.66c0.8,0.49,1.81,0.38,2.47-0.27l2.07-2.09l2.34,2.33l-2.07,2.07c-0.66,0.66-0.77,1.67-0.27,2.48
		c0.78,1.25,1.34,2.61,1.69,4.04c0.22,0.91,1.02,1.55,1.94,1.55l2.91-0.01V22.03z"/>
	<path d="M20.38,10.34c-5.57,0-10.1,4.53-10.1,10.1s4.53,10.1,10.1,10.1s10.1-4.53,10.1-10.1S25.95,10.34,20.38,10.34z M20.38,29.05
		c-4.74,0-8.6-3.86-8.6-8.6s3.86-8.6,8.6-8.6s8.6,3.86,8.6,8.6S25.12,29.05,20.38,29.05z"/>
</g>
</svg>
