<?xml version="1.0" encoding="utf-8"?>
<!-- Generator: Adobe Illustrator 23.0.1, SVG Export Plug-In . SVG Version: 6.00 Build 0)  -->
<svg version="1.1" id="Calque_1" xmlns="http://www.w3.org/2000/svg" x="0px" y="0px"
     viewBox="0 0 39.2 39.1" style="enable-background:new 0 0 39.2 39.1;" xml:space="preserve">
<g>
	<polygon points="18.6,17.1 20.5,17.1 20.5,14.1 23.5,14.1 23.5,12.2 20.5,12.2 20.5,9.2 18.6,9.2 18.6,12.2 15.6,12.2 15.6,14.1 
		18.6,14.1 	"/>
	<path d="M8.4,20v6.1h6.1V20H8.4z M13.5,25.2H9.4V21h4.1V25.2z"/>
	<path d="M16.5,26.2h6.1V20h-6.1V26.2z M17.5,21h4.1v4.1h-4.1V21z"/>
	<path d="M34.6,38v-31c0-1.7-1.3-3-3-3h-2.8V3.2c0-1.7-1.4-3.2-3.2-3.2H13.5c-1.7,0-3.2,1.4-3.2,3.2v0.8H7.5c-1.7,0-3,1.3-3,3v31H0
		v1h39.1v-1H34.6z M11.4,3.2c0-1.2,1-2.2,2.2-2.2h12.1c1.2,0,2.2,1,2.2,2.2v0.8H11.4V3.2z M6.5,7.1c0-0.6,0.4-1,1-1h24.1
		c0.6,0,1,0.4,1,1v31h-9v-8.9h-8.1V38h-9V7.1z M22.6,38h-6.1v-7.9h6.1V38z"/>
	<path d="M30.6,20h-6.1v6.1h6.1V20z M29.6,25.2h-4.1V21h4.1V25.2z"/>
</g>
</svg>
