<?xml version="1.0" encoding="utf-8"?>
<!-- Generator: Adobe Illustrator 23.0.1, SVG Export Plug-In . SVG Version: 6.00 Build 0)  -->
<svg version="1.1" id="Calque_1" xmlns="http://www.w3.org/2000/svg" x="0px" y="0px"
     viewBox="0 0 26.95 26.95" style="enable-background:new 0 0 26.95 26.95;" xml:space="preserve">
<g>
	<path d="M16.87,7.18c-0.41-0.34-0.89-0.6-1.43-0.78s-1.11-0.26-1.71-0.26c-0.64,0-1.25,0.09-1.81,0.28s-1.06,0.47-1.49,0.83
		C10,7.61,9.65,8.06,9.37,8.58c-0.27,0.53-0.45,1.12-0.54,1.8l2.58,0.23c0.01-0.28,0.07-0.55,0.17-0.82c0.1-0.27,0.24-0.5,0.43-0.7
		c0.19-0.2,0.41-0.36,0.67-0.48c0.26-0.12,0.55-0.18,0.87-0.18c0.63,0,1.12,0.19,1.46,0.56c0.34,0.37,0.51,0.83,0.51,1.38
		c0,0.42-0.09,0.78-0.28,1.07s-0.42,0.56-0.68,0.8l-0.95,0.9c-0.27,0.25-0.49,0.49-0.66,0.71c-0.18,0.22-0.31,0.46-0.42,0.69
		c-0.1,0.24-0.18,0.49-0.23,0.76c-0.05,0.27-0.07,0.57-0.07,0.9V17h2.48v-0.55c0-0.31,0.02-0.57,0.06-0.78s0.12-0.41,0.22-0.59
		c0.1-0.18,0.24-0.36,0.42-0.55c0.17-0.18,0.4-0.39,0.68-0.63c0.32-0.28,0.61-0.55,0.87-0.81c0.26-0.26,0.48-0.53,0.66-0.81
		c0.18-0.28,0.32-0.59,0.42-0.92s0.15-0.73,0.15-1.18c0-0.66-0.12-1.24-0.36-1.74C17.61,7.94,17.29,7.52,16.87,7.18z"/>
	<path d="M13.5,18.28c-0.46,0-0.86,0.16-1.19,0.48c-0.33,0.32-0.49,0.71-0.49,1.16c0,0.22,0.05,0.43,0.14,0.63
		c0.09,0.2,0.21,0.36,0.37,0.5c0.15,0.14,0.33,0.25,0.54,0.34c0.2,0.08,0.42,0.13,0.64,0.13c0.46,0,0.86-0.16,1.19-0.48
		s0.49-0.71,0.49-1.16s-0.17-0.83-0.5-1.13C14.34,18.43,13.95,18.28,13.5,18.28z"/>
	<path d="M13.47,0.04c-7.39,0-13.41,6.01-13.41,13.41s6.01,13.41,13.41,13.41s13.41-6.01,13.41-13.41S20.86,0.04,13.47,0.04z
		 M13.47,25.86c-6.84,0-12.41-5.57-12.41-12.41S6.63,1.04,13.47,1.04s12.41,5.57,12.41,12.41S20.31,25.86,13.47,25.86z"/>
</g>
</svg>
