<?xml version="1.0" encoding="utf-8"?>
<!-- Generator: Adobe Illustrator 23.0.1, SVG Export Plug-In . SVG Version: 6.00 Build 0)  -->
<svg version="1.1" id="Calque_1" xmlns="http://www.w3.org/2000/svg" x="0px" y="0px"
     viewBox="0 0 14.29 14.33" style="enable-background:new 0 0 14.29 14.33;" xml:space="preserve">
<g>
	<path d="M7.12,1.04c1.82,0,3.53,0.81,4.69,2.19H9.47v1h3.84V0.32h-1v1.97c-1.34-1.42-3.2-2.25-5.19-2.25
		c-3.93,0-7.13,3.2-7.13,7.13h1C0.99,3.79,3.74,1.04,7.12,1.04z"/>
	<path d="M13.25,7.17c0,3.38-2.75,6.13-6.13,6.13c-1.9,0-3.64-0.86-4.8-2.32h2.33v-1H0.81v3.91h1v-1.98
		c1.34,1.51,3.24,2.39,5.31,2.39c3.93,0,7.13-3.2,7.13-7.13H13.25z"/>
</g>
</svg>
