<?xml version="1.0" encoding="utf-8"?>
<!-- Generator: Adobe Illustrator 23.0.1, SVG Export Plug-In . SVG Version: 6.00 Build 0)  -->
<svg version="1.1" id="Calque_1" xmlns="http://www.w3.org/2000/svg" x="0px" y="0px"
     viewBox="0 0 25 25" style="enable-background:new 0 0 25 25;" xml:space="preserve">
<style type="text/css">
	.st0{opacity:0.8;}
	.st1{fill:#4075C3;}
</style>
<g class="st0">
	<circle class="st1" cx="12.5" cy="12.5" r="10.4"/>
	<path class="st1" d="M12.5,25C5.6,25,0,19.4,0,12.5S5.6,0,12.5,0S25,5.6,25,12.5S19.4,25,12.5,25z M12.5,2.3
		C6.9,2.3,2.3,6.9,2.3,12.5s4.6,10.2,10.2,10.2s10.2-4.6,10.2-10.2S18.1,2.3,12.5,2.3z"/>
</g>
<g>
	<path class="st1" d="M12.5,25C5.6,25,0,19.4,0,12.5S5.6,0,12.5,0S25,5.6,25,12.5S19.4,25,12.5,25z M12.5,2.3
		C6.9,2.3,2.3,6.9,2.3,12.5s4.6,10.2,10.2,10.2s10.2-4.6,10.2-10.2S18.1,2.3,12.5,2.3z"/>
</g>
</svg>
