<?xml version="1.0" encoding="utf-8"?>
<!-- Generator: Adobe Illustrator 23.0.1, SVG Export Plug-In . SVG Version: 6.00 Build 0)  -->
<svg version="1.1" id="Calque_1" xmlns="http://www.w3.org/2000/svg" x="0px" y="0px"
     viewBox="0 0 19.73 14.77" style="enable-background:new 0 0 19.73 14.77;" xml:space="preserve">
<g>
	<path d="M14.81,7.94c-1.15,0-2.24,0.46-3.11,1.27c-0.56-0.25-1.17-0.39-1.8-0.39c-0.65,0-1.27,0.14-1.84,0.4
		C7.17,8.41,6.07,7.94,4.91,7.94c-2.7,0-4.89,2.43-4.89,5.42c0,0.28,0.22,0.5,0.5,0.5s0.5-0.22,0.5-0.5c0-2.44,1.75-4.42,3.89-4.42
		c0.81,0,1.58,0.3,2.23,0.82C5.85,10.74,5,12.38,5,14.24c0,0.28,0.22,0.5,0.5,0.5S6,14.52,6,14.24c0-2.44,1.75-4.42,3.89-4.42
		s3.89,1.98,3.89,4.42c0,0.28,0.22,0.5,0.5,0.5s0.5-0.22,0.5-0.5c0-1.87-0.86-3.53-2.17-4.5c0.65-0.51,1.41-0.79,2.2-0.79
		c2.15,0,3.89,1.98,3.89,4.42c0,0.28,0.22,0.5,0.5,0.5s0.5-0.22,0.5-0.5C19.7,10.37,17.5,7.94,14.81,7.94z"/>
	<path d="M4.91,7.27c0.73,0,1.44-0.23,2.04-0.64c0.66,0.92,1.73,1.52,2.94,1.52c1.2,0,2.26-0.59,2.92-1.49
		c0.59,0.39,1.28,0.62,2,0.62c2,0,3.63-1.63,3.63-3.63s-1.63-3.63-3.63-3.63c-1.16,0-2.24,0.56-2.92,1.48c-0.57-0.38-1.26-0.6-2-0.6
		c-0.75,0-1.45,0.23-2.04,0.63C7.18,0.58,6.09,0.02,4.91,0.02c-2,0-3.63,1.63-3.63,3.63S2.91,7.27,4.91,7.27z M14.81,1.02
		c1.45,0,2.63,1.18,2.63,2.63s-1.18,2.63-2.63,2.63c-0.55,0-1.08-0.18-1.53-0.5c0.14-0.39,0.23-0.81,0.23-1.25
		c0-0.89-0.34-1.7-0.87-2.33C13.13,1.47,13.93,1.02,14.81,1.02z M12.52,4.52c0,1.45-1.18,2.63-2.63,2.63S7.26,5.97,7.26,4.52
		S8.44,1.9,9.89,1.9S12.52,3.07,12.52,4.52z M4.91,1.02c0.9,0,1.71,0.47,2.19,1.21C6.59,2.86,6.26,3.65,6.26,4.52
		c0,0.43,0.09,0.83,0.22,1.21c-0.45,0.34-1,0.54-1.57,0.54c-1.45,0-2.63-1.18-2.63-2.63S3.47,1.02,4.91,1.02z"/>
</g>
</svg>
