<?xml version="1.0" encoding="utf-8"?>
<!-- Generator: Adobe Illustrator 23.0.1, SVG Export Plug-In . SVG Version: 6.00 Build 0)  -->
<svg version="1.1" id="Calque_1" xmlns="http://www.w3.org/2000/svg" xmlns:xlink="http://www.w3.org/1999/xlink" x="0px" y="0px"
	 viewBox="0 0 53.98 53.98" style="enable-background:new 0 0 53.98 53.98;" xml:space="preserve">
<style type="text/css">
	.st0{fill:#FFFFFF;}
	.st1{opacity:0.15;}
	.st2{opacity:0.36;}
</style>
<g>
	<g>
		<path class="st0" d="M26.94,53.88c-14.81,0-26.86-12.05-26.86-26.86c0-14.81,12.05-26.86,26.86-26.86
			c14.81,0,26.86,12.05,26.86,26.86C53.81,41.83,41.76,53.88,26.94,53.88z M26.94,2.15C13.23,2.15,2.08,13.3,2.08,27.01
			s11.15,24.86,24.86,24.86s24.86-11.15,24.86-24.86S40.65,2.15,26.94,2.15z"/>
	</g>
	<g class="st1">
		<circle class="st0" cx="26.94" cy="27.01" r="25.86"/>
	</g>
	<g>
		<g class="st2">
			<path class="st0" d="M7,44.43c0,0,1.81-4.39,3.61-8.52s8.26-5.42,10.58-6.45c1.29,3.35,4.39,6.97,5.68,6.97h0.15
				c1.29,0,4.39-3.61,5.68-6.97c2.32,1.03,8.77,2.32,10.58,6.45c1.81,4.13,3.61,8.52,3.61,8.52s-8.05,8.92-20.14,8.92
				S7,44.43,7,44.43z"/>
		</g>
		<g class="st2">
			<circle class="st0" cx="26.74" cy="20.45" r="7.61"/>
		</g>
	</g>
</g>
</svg>
