<?xml version="1.0" encoding="utf-8"?>
<!-- Generator: Adobe Illustrator 23.0.1, SVG Export Plug-In . SVG Version: 6.00 Build 0)  -->
<svg version="1.1" id="Calque_1" xmlns="http://www.w3.org/2000/svg" x="0px" y="0px"
     viewBox="0 0 56.5 31.4" style="enable-background:new 0 0 56.5 31.4;" xml:space="preserve">
<g>
	<path d="M52,30.4V11.1L43,5.2l-8.5,5.6l-2.7-2l0,1.2l2.3,1.7v13.2l-2.3-1.2l0,1.2l2.3,1.2v4.4h-3.6V3.1c0-1.7-1.3-3-3-3H7.1
		c-1.7,0-3,1.3-3,3v27.3h-4v1h56.4v-1H52z M34.9,11.7l1.9-1.2l5.7,2.2v4.1l-7.6,7.8V11.7z M42.5,11.6l-4.6-1.8l4.6-3V11.6z M43,27.8
		l3.6,2.6h-7.3L43,27.8z M43.5,26.9v-9.1l4.2,0.5l3.3,4.9l0,0v7.3h-2.7l0,0L43.5,26.9z M48.8,18.1l2.2-0.4v3.6L48.8,18.1z M51,16.7
		l-3.1,0.6l-4.5-0.5v-10l7.6,4.9V16.7z M34.9,26l7.6-7.8v8.7l-4.7,3.4l0.1,0.1h-2.9V26z M6.1,3.1c0-0.6,0.4-1,1-1h20.2
		c0.6,0,1,0.4,1,1v27.3H6.1V3.1z"/>
	<path d="M16.6,19.7v-0.4c0-3.5,0-4.5,0-6.6l0-0.5h-0.5c-4.2,0-7.7,3.4-7.7,7.7c0,4.2,3.4,7.7,7.7,7.7c2,0,4-0.8,5.4-2.2l0.4-0.4
		l-0.4-0.4C20.1,23.2,18.2,21.3,16.6,19.7z M16.1,26.6c-3.7,0-6.7-3-6.7-6.7c0-3.5,2.7-6.4,6.2-6.6c0,1.8,0,2.9,0,6.1v0.8l0.2,0.1
		c1.5,1.5,3.3,3.2,4.7,4.7C19.2,26,17.7,26.6,16.1,26.6z"/>
	<rect x="8.5" y="4.4" width="12.6" height="1"/>
	<rect x="8.5" y="6.9" width="9.6" height="1"/>
	<path d="M17.9,9.7v8.1l0.5,0c0,0,4.6,0,7.2,0h0.5v-0.5c0-4.2-3.4-7.7-7.7-7.7H17.9z M18.9,10.7c3.3,0.2,5.9,2.9,6.1,6.1
		c-2.1,0-5,0-6.1,0V10.7z"/>
	<path d="M19.5,20c0,0,3.3,3.4,4.7,4.8l0.4,0.4l0.4-0.4c1.4-1.4,2.1-3.2,2.1-5.1v-0.5h-8.4L19.5,20z M26,20.1
		c-0.1,1.3-0.6,2.5-1.5,3.5c-1-1-2.6-2.6-3.5-3.5H26z"/>
</g>
</svg>
