<?xml version="1.0" encoding="utf-8"?>
<!-- Generator: Adobe Illustrator 23.0.1, SVG Export Plug-In . SVG Version: 6.00 Build 0)  -->
<svg version="1.1" id="Calque_1" xmlns="http://www.w3.org/2000/svg" xmlns:xlink="http://www.w3.org/1999/xlink" x="0px" y="0px"
	 viewBox="0 0 19.11 18.73" style="enable-background:new 0 0 19.11 18.73;" xml:space="preserve">
<path d="M11.67,0.1c-4.06,0-7.36,3.3-7.36,7.36c0,1.56,0.49,3,1.32,4.19l-5.26,5.26c-0.39,0.39-0.39,1.02,0,1.41
	c0.2,0.2,0.45,0.29,0.71,0.29s0.51-0.1,0.71-0.29l5.2-5.2c1.27,1.06,2.91,1.69,4.69,1.69c4.06,0,7.36-3.3,7.36-7.36
	S15.73,0.1,11.67,0.1z M11.67,13.82c-3.51,0-6.36-2.85-6.36-6.36c0-3.51,2.85-6.36,6.36-6.36c3.51,0,6.36,2.85,6.36,6.36
	C18.03,10.97,15.18,13.82,11.67,13.82z"/>
</svg>
