<?xml version="1.0" encoding="utf-8"?>
<!-- Generator: Adobe Illustrator 23.0.1, SVG Export Plug-In . SVG Version: 6.00 Build 0)  -->
<svg version="1.1" id="Calque_1" xmlns="http://www.w3.org/2000/svg" xmlns:xlink="http://www.w3.org/1999/xlink" x="0px" y="0px"
	 viewBox="0 0 28.45 22.02" style="enable-background:new 0 0 28.45 22.02;" xml:space="preserve">
<g>
	<path d="M25,10.67c-0.19-5.86-5-10.57-10.91-10.57c-2.75,0-5.38,1.02-7.4,2.88l1.69,1.84c1.56-1.43,3.58-2.22,5.7-2.22
		c4.53,0,8.22,3.59,8.41,8.07h-3.11l4.48,4.48l4.48-4.48H25z"/>
	<path d="M14.09,19.45c-4.58,0-8.3-3.67-8.41-8.22h3.36L4.56,6.75l-4.48,4.48h3.1c0.11,5.93,4.96,10.72,10.91,10.72
		c2.57,0,5.07-0.91,7.04-2.57l-1.61-1.91C18,18.75,16.07,19.45,14.09,19.45z"/>
</g>
</svg>
