<?xml version="1.0" encoding="utf-8"?>
<!-- Generator: Adobe Illustrator 23.0.1, SVG Export Plug-In . SVG Version: 6.00 Build 0)  -->
<svg version="1.1" id="Calque_1" xmlns="http://www.w3.org/2000/svg" x="0px" y="0px"
     viewBox="0 0 39.2 37.1" style="enable-background:new 0 0 39.2 37.1;" xml:space="preserve">
<g>
	<path d="M33.6,36V25.2c0-3.5-2.9-7.1-8.4-10.3l-0.7-0.4L24,15.1c-2,2.1-3.9,3.9-4.9,4.9c-1-0.9-2.8-2.8-4.9-4.9l-0.5-0.6L13,15
		c-5.5,3.2-8.4,6.7-8.4,10.3V36H0v1h39.1v-1H33.6z M6.6,25.2c0-2.6,2.4-5.5,6.8-8.1c2.7,2.8,5,5,5,5l0.7,0.7l0.7-0.7
		c0,0,2.3-2.2,5.1-5c4.4,2.6,6.8,5.5,6.8,8.1V36h-3v-7h-1v7H10.6v-7h-1v7h-3V25.2z"/>
	<path d="M19.1,15.1c4.1,0,7.5-3.4,7.5-7.5s-3.4-7.5-7.5-7.5s-7.5,3.4-7.5,7.5S15,15.1,19.1,15.1z M19.1,2.1c3,0,5.5,2.5,5.5,5.5
		s-2.5,5.5-5.5,5.5c-3,0-5.5-2.5-5.5-5.5S16.1,2.1,19.1,2.1z"/>
</g>
</svg>
