<?xml version="1.0" encoding="utf-8"?>
<!-- Generator: Adobe Illustrator 22.0.1, SVG Export Plug-In . SVG Version: 6.00 Build 0)  -->
<svg version="1.1" id="Calque_1" xmlns="http://www.w3.org/2000/svg" xmlns:xlink="http://www.w3.org/1999/xlink" x="0px" y="0px"
	 viewBox="0 0 20 20" style="enable-background:new 0 0 20 20;" xml:space="preserve">
<style type="text/css">
	.st0{fill:#76C62F;}
</style>
<path class="st0" d="M10,1c5,0,9,4,9,9s-4,9-9,9c-5,0-9-4-9-9S5.1,1,10,1 M10,0C4.5,0,0,4.5,0,10s4.5,10,10,10c5.5,0,10-4.5,10-10
	S15.5,0,10,0L10,0z"/>
<g>
	<path class="st0" d="M10.9,13H9c0-0.3,0-0.5,0-0.5c0-0.6,0.1-1.2,0.3-1.6c0.2-0.4,0.6-0.9,1.3-1.4c0.6-0.5,1-0.8,1.1-1
		c0.2-0.2,0.3-0.5,0.3-0.8c0-0.4-0.2-0.8-0.5-1.1c-0.3-0.3-0.8-0.4-1.4-0.4c-0.5,0-1,0.2-1.4,0.5C8.3,7,8.1,7.5,8,8.1L6,7.9
		C6,7,6.4,6.2,7.1,5.5c0.7-0.6,1.7-1,2.8-1c1.2,0,2.2,0.3,2.9,1C13.7,6.2,14,6.9,14,7.8c0,0.5-0.1,0.9-0.4,1.3
		c-0.3,0.4-0.8,1-1.7,1.7c-0.5,0.4-0.7,0.7-0.8,0.9C11,12,10.9,12.4,10.9,13z M9,15.9v-2.2h2.2v2.2H9z"/>
</g>
</svg>
