<?xml version="1.0" encoding="utf-8"?>
<!-- Generator: Adobe Illustrator 22.0.1, SVG Export Plug-In . SVG Version: 6.00 Build 0)  -->
<svg version="1.1" id="Calque_1" xmlns="http://www.w3.org/2000/svg" xmlns:xlink="http://www.w3.org/1999/xlink" x="0px" y="0px"
	 viewBox="0 0 20 20" style="enable-background:new 0 0 20 20;" xml:space="preserve">
<style type="text/css">
	.st0{fill:#76C62F;}
</style>
<path class="st0" d="M20.1,9.5h-2.5c-0.2-3.7-3.2-6.8-7-7V0h-1v2.5c-3.7,0.2-6.7,3.3-7,7H0.1v1h2.5c0.3,3.7,3.2,6.7,7,6.9V20h1v-2.5
	c3.7-0.2,6.7-3.2,7-6.9h2.5V9.5z M10.1,15.5c-3,0-5.5-2.5-5.5-5.5c0-3,2.5-5.5,5.5-5.5c3,0,5.5,2.5,5.5,5.5
	C15.6,13,13.1,15.5,10.1,15.5z"/>
</svg>
