<?xml version="1.0" encoding="utf-8"?>
<!-- Generator: Adobe Illustrator 22.0.1, SVG Export Plug-In . SVG Version: 6.00 Build 0)  -->
<svg version="1.1" id="Calque_1" xmlns="http://www.w3.org/2000/svg" xmlns:xlink="http://www.w3.org/1999/xlink" x="0px" y="0px"
	 viewBox="0 0 20 20" style="enable-background:new 0 0 20 20;" xml:space="preserve">
<style type="text/css">
	.st0{fill:#76C62F;}
</style>
<path class="st0" d="M5.8,5.8H0V4.1C0,1.8,1.8,0,4.1,0h1.7V5.8z"/>
<path class="st0" d="M11.9,1v3.8H8.1V1H11.9 M12.9,0H7.1v5.8h5.8V0L12.9,0z"/>
<path class="st0" d="M15.7,1C17.5,1,19,2.5,19,4.3v0.5h-3.8V1H15.7 M15.7,0h-1.5v5.8H20V4.3C20,1.9,18.1,0,15.7,0L15.7,0z"/>
<path class="st0" d="M4.8,8.1v3.8H1V8.1H4.8 M5.8,7.1H0v5.8h5.8V7.1L5.8,7.1z"/>
<path class="st0" d="M11.9,8.1v3.8H8.1V8.1H11.9 M12.9,7.1H7.1v5.8h5.8V7.1L12.9,7.1z"/>
<path class="st0" d="M19,8.1v3.8h-3.8V8.1H19 M20,7.1h-5.8v5.8H20V7.1L20,7.1z"/>
<path class="st0" d="M4.8,15.2V19H4c-1.7,0-3-1.3-3-3v-0.8H4.8 M5.8,14.2H0V16c0,2.2,1.8,4,4,4h1.8V14.2L5.8,14.2z"/>
<path class="st0" d="M11.9,15.2V19H8.1v-3.8H11.9 M12.9,14.2H7.1V20h5.8V14.2L12.9,14.2z"/>
<path class="st0" d="M19,15.2V16c0,1.7-1.4,3-3,3h-0.7v-3.8H19 M20,14.2h-5.8V20H16c2.2,0,4-1.8,4-4V14.2L20,14.2z"/>
</svg>
