<svg id="Calque_1" xmlns="http://www.w3.org/2000/svg" viewBox="0 0 180.9 114.6"><style>.st0{fill:#4075c3}.st1{fill:#4d4d4d}.st3{fill:#fff}</style><path class="st0" d="M10.1 81.8H17v10.7c0 .2.2.5.5.5h8.8c.3 0 .5-.3.5-.5V61.4c0-.3-.2-.5-.5-.5h-8.8c-.3 0-.5.2-.5.5v12.5h-6.9V61.4c0-.3-.2-.5-.5-.5H.7c-.2 0-.5.2-.5.5v31.2c0 .2.3.5.5.5h8.8c.3 0 .5-.3.5-.5V81.8zm32.8-15c-8.1 0-13.5 5.4-13.5 13.5s5.5 13.5 13.7 13.5c3.6 0 7.2-1 9.7-2.6.3-.2.3-.3.3-.5l-2-5.8c0-.1-.1-.2-.2-.3h-.3c-2.1 1-4.8 1.6-7.3 1.6-4.1 0-4.1-3.1-4.1-3.1v-.2h15.3c.3 0 .5-.1.5-.4.1-.6.2-1.3.2-2.1 0-8.6-4.6-13.6-12.3-13.6zm3.2 11.3h-7V78c0-2.2 1.5-3.6 3.7-3.6 2 0 3.3 1.5 3.3 3.6v.1z"/><path class="st1" d="M66.6 82h.8l5 10.4c.2.4.5.7.9.7h10.1c.2 0 .3-.1.4-.2.1-.1 0-.2 0-.3l-7.6-12.3.2-.1c3.4-1.4 5.7-5.1 5.7-8.9 0-6.3-4.8-10.5-11.9-10.5H57.8c-.3 0-.5.3-.5.5v31.2c0 .2.2.5.5.5h8.3c.3 0 .6-.3.6-.5V82zm3-7.7h-3V69h3c1.7 0 2.9 1.1 2.9 2.7 0 1.5-1.2 2.6-2.9 2.6zm26.7 13.2h9.1l1.5 5.1c.1.3.5.5.8.5h9.3c.1 0 .2 0 .3-.1v-.2l-10.7-31.3c-.1-.2-.5-.5-1-.5H96c-.4 0-.9.3-1 .5L84.4 92.6v.3c0 .1.1.1.3.1H94c.4 0 .7-.2.8-.5l1.5-5zm7.3-6.4H98l2.8-9.8 2.8 9.8zm42.2-3.5v14.9c0 .2.2.5.5.5h8.7c.3 0 .5-.3.5-.5V61.4c0-.3-.2-.5-.5-.5h-9.9c-.5 0-1.2.4-1.5.9L137 80.1l-6.7-18.5c-.2-.4-.9-.8-1.4-.8H119c-.3 0-.5.2-.5.5v31.2c0 .2.2.5.5.5h8.7c.3 0 .5-.3.5-.5V77.6l5.1 14.8c.1.3.6.6 1 .6h5.2c.4 0 .9-.3 1-.6l5.3-14.8zm15.4 5.4c-.2.1-.3.2-.3.4l-3 6.7c-.1.2 0 .4.3.6 2.3 1.9 6.4 3.1 10.4 3.1 7.1 0 12-4.1 12-10.3 0-6.7-5.8-9-9.6-10.5-2.2-.8-3.7-1.4-3.7-2.5s1-1.9 2.6-1.9c1.7.1 4.4 1.1 6.7 2.5.1.1.2.1.3.1.1 0 .2-.2.3-.4l3-6.7c.1-.2 0-.4-.3-.6-3-2-7.2-3.4-10.5-3.4-7 0-11.8 4.2-11.8 10.3 0 6.6 5.7 8.9 9.6 10.4 2.2.8 3.7 1.5 3.7 2.5 0 1.2-1.1 2-2.7 2-1.8-.1-4.4-1-6.6-2.3h-.4z"/><path d="M112.7 21.3c0 10.2-16.1 27.8-20.1 32-.5.5-1.3.5-1.8 0-4-4.3-20.1-21.9-20.1-32 0-11.6 9.4-21 21-21s21 9.4 21 21z" fill="#d4d3d1"/><path class="st0" d="M117.4 38.5c0 4-6.1 10.7-8 12.6-.3.3-.7.3-1 0-1.8-1.9-8-8.6-8-12.6 0-4.7 3.8-8.5 8.5-8.5s8.5 3.9 8.5 8.5z"/><path class="st3" d="M102.4 18.2h-6.9v-6.8c0-.7-.5-1.2-1.2-1.2h-5.1c-.7 0-1.2.5-1.2 1.2v6.8h-6.9c-.7 0-1.2.5-1.2 1.2v5.3c0 .7.5 1.2 1.2 1.2H88v6.8c0 .7.5 1.2 1.2 1.2h5.1c.7 0 1.2-.5 1.2-1.2V26h6.9c.7 0 1.2-.5 1.2-1.2v-5.3c0-.7-.6-1.3-1.2-1.3z"/><circle class="st3" cx="109" cy="38.3" r="3.3"/><path d="M87.7 33.2c0 5.6-8.6 15.2-11.2 18-.4.4-1.1.4-1.5 0-2.6-2.8-11.2-12.4-11.2-18 0-6.6 5.4-12 12-12s11.9 5.4 11.9 12z" fill="#868686"/><circle class="st3" cx="75.7" cy="32.9" r="4.7"/><path class="st1" d="M41.6 112.8l-5.2-7v7h-1.1V104h1.1l5.1 6.9V104h1.1v8.8h-1zm13.2 0V104h1.1v8.8h-1.1zm12.8-4.4c0-2.8 2-4.6 4.5-4.6 1.6 0 2.7.7 3.4 1.6l-.9.6c-.6-.7-1.5-1.2-2.6-1.2-1.9 0-3.4 1.5-3.4 3.6s1.5 3.6 3.4 3.6c1.1 0 1.9-.5 2.4-1v-1.8h-3v-1h4.1v3.2c-.8.9-2 1.5-3.5 1.5-2.3.1-4.4-1.7-4.4-4.5zm19.9 4.4V104h5.8v1h-4.7v2.8h4.6v1h-4.6v3h4.7v1h-5.8zm22.7 0l-2.2-3.5h-1.8v3.5h-1.1V104h3.5c1.6 0 2.8 1 2.8 2.7 0 1.6-1.1 2.5-2.3 2.6l2.4 3.6h-1.3zm.1-6.1c0-1-.7-1.7-1.8-1.7h-2.3v3.4h2.3c1 0 1.8-.8 1.8-1.7zm12.9 6.1V104h1.1v8.8h-1.1zm19.5 0l-.8-2h-4.4l-.8 2h-1.3l3.6-8.8h1.4l3.5 8.8h-1.2zm-2.9-7.7l-1.9 4.8h3.7l-1.8-4.8z"/></svg>