<?xml version="1.0" encoding="utf-8"?>
<!-- Generator: Adobe Illustrator 17.1.0, SVG Export Plug-In . SVG Version: 6.00 Build 0)  -->
<!DOCTYPE svg PUBLIC "-//W3C//DTD SVG 1.1//EN" "http://www.w3.org/Graphics/SVG/1.1/DTD/svg11.dtd">
<svg version="1.1" id="logo" xmlns="http://www.w3.org/2000/svg" xmlns:xlink="http://www.w3.org/1999/xlink" x="0px" y="0px"
	 viewBox="0 0 998.068 585.519" enable-background="new 0 0 998.068 585.519" xml:space="preserve">
<g>
	<g>
		<path fill="#DB3C26" d="M217.211,235.349c-12.657,0-23.411-9.176-23.411-22.463c0-12.974,10.754-22.464,23.411-22.464
			c12.34,0,23.095,9.491,23.095,22.464C240.306,226.172,229.551,235.349,217.211,235.349z"/>
		<g>
			<path fill="#A0A0A0" d="M446.685,287.039c-5.402-3.178-12.396-4.767-19.707-4.767c-13.351,0-24.161,6.993-27.019,20.023v88.051
				h-39.417V248.259h39.417v13.983c6.039-10.171,17.799-17.165,31.786-17.165c6.68,0,12.716,1.273,14.94,2.545V287.039z"/>
			<rect x="462.139" y="248.259" fill="#A0A0A0" width="39.412" height="142.086"/>
			<path fill="#A0A0A0" d="M673.395,245.078c29.249,0,46.73,20.344,46.73,52.452v92.816h-39.414v-84.552
				c0-15.258-6.679-25.43-20.344-25.43c-10.172,0-19.392,6.356-21.935,18.436v91.546H598.7v-84.552
				c0-15.258-6.357-25.43-20.029-25.43c-10.171,0-19.707,6.356-22.248,18.436v91.546h-39.418V248.259h39.418v11.76
				c6.994-8.9,20.026-14.942,35.92-14.942c16.844,0,30.194,7.63,38.143,18.121C639.702,253.026,653.374,245.078,673.395,245.078z"/>
			<path fill="#A0A0A0" d="M867.495,343.939c-5.086,30.195-27.337,49.586-62.938,49.586c-41.326,0-68.978-30.198-68.978-74.064
				c0-42.913,28.608-74.384,68.341-74.384c41.643,0,64.526,28.926,64.526,70.569v12.08h-94.725
				c1.271,21.295,13.35,34.012,30.835,34.012c13.35,0,23.203-5.723,26.381-17.799H867.495z M774.676,303.886h54.991
				c-0.319-14.94-9.216-26.7-25.429-26.7C788.98,277.186,778.17,286.401,774.676,303.886z"/>
			<path fill="#A0A0A0" d="M276.43,195.173h-23.645v34.65h21.1c20.981,0,31.152,11.761,31.152,29.241
				c0,16.851-10.171,28.927-31.152,28.927h-36.554v-39.731h-40.369v142.086h40.369V322.64h39.099
				c41.321,0,68.659-22.252,68.659-63.576C345.089,217.425,317.751,195.173,276.43,195.173z"/>
		</g>
	</g>
	<g display="none">
		<path display="inline" fill="#787878" d="M972.303,286.198v17.714h-5.688V259.7h16.562c8.929,0,14.545,4.536,14.545,13.249
			c0,8.641-5.616,13.249-14.545,13.249H972.303z M983.032,264.669h-10.729v16.489h10.729c5.977,0,9.073-3.24,9.073-8.209
			C992.105,267.909,989.008,264.669,983.032,264.669z"/>
		<path display="inline" fill="#787878" d="M1029.76,303.912h-5.473v-4.032c-1.8,2.521-5.185,4.681-9.288,4.681
			c-7.273,0-11.161-4.681-11.161-11.665v-20.954h5.473v20.09c0,4.464,2.16,7.56,6.984,7.56c3.744,0,6.841-2.521,7.992-5.977v-21.674
			h5.473V303.912z"/>
		<path display="inline" fill="#787878" d="M1044.734,303.912h-5.473v-46.804h5.473v18.577c1.584-2.304,5.041-4.393,9-4.393
			c9.361,0,14.402,7.633,14.402,16.634c0,9.072-5.041,16.634-14.402,16.634c-3.959,0-7.416-2.089-9-4.393V303.912z
			 M1044.734,294.407c1.656,3.313,4.824,5.257,8.209,5.257c6.119,0,9.721-4.969,9.721-11.737c0-6.769-3.602-11.737-9.721-11.737
			c-3.385,0-6.553,1.944-8.209,5.257V294.407z"/>
		<path display="inline" fill="#787878" d="M1080.877,303.912h-5.4v-46.804h5.4V303.912z"/>
		<path display="inline" fill="#787878" d="M1093.189,265.749c-1.871,0-3.455-1.584-3.455-3.456c0-1.944,1.584-3.457,3.455-3.457
			c1.945,0,3.529,1.513,3.529,3.457C1096.719,264.165,1095.135,265.749,1093.189,265.749z M1095.926,303.912h-5.4v-31.971h5.4
			V303.912z"/>
		<path display="inline" fill="#787878" d="M1117.814,271.293c7.201,0,11.738,4.177,12.818,10.297h-5.545
			c-0.721-3.456-3.457-5.544-7.273-5.544c-5.473,0-9.072,4.896-9.072,11.881c0,6.984,3.6,11.881,9.072,11.881
			c3.816,0,6.553-2.088,7.273-5.544h5.545c-1.08,6.12-5.617,10.297-12.818,10.297c-8.568,0-14.545-6.697-14.545-16.634
			C1103.27,277.99,1109.246,271.293,1117.814,271.293z"/>
		<path display="inline" fill="#787878" d="M1190.393,259.7v44.212h-5.689V283.75h-24.984v20.162h-5.689V259.7h5.689v18.938h24.984
			V259.7H1190.393z"/>
		<path display="inline" fill="#787878" d="M1225.742,294.335c-1.152,6.049-5.689,10.226-12.889,10.226
			c-8.713,0-14.689-6.697-14.689-16.562c0-9.577,5.832-16.706,14.545-16.706c8.785,0,13.465,6.409,13.465,15.697v1.944h-22.609
			c0.072,6.841,3.887,11.018,9.289,11.018c3.959,0,6.912-2.017,7.775-5.617H1225.742z M1203.707,284.83h16.994
			c-0.072-4.752-2.592-8.929-7.92-8.929C1207.957,275.901,1204.5,279.214,1203.707,284.83z"/>
		<path display="inline" fill="#787878" d="M1251.373,303.912v-2.376c-1.225,1.296-4.609,2.952-8.426,2.952
			c-6.48,0-11.881-3.889-11.881-10.225c0-5.977,5.4-10.009,12.242-10.009c3.311,0,6.695,1.367,8.064,2.592v-4.032
			c0-3.961-2.449-6.841-7.057-6.841c-3.385,0-5.545,1.44-6.553,4.393h-5.328c1.08-5.4,5.832-9.073,11.953-9.073
			c7.631,0,12.168,4.32,12.168,11.306v21.314H1251.373z M1251.373,292.679c-0.938-2.376-4.178-3.96-7.49-3.96
			c-3.887,0-7.631,1.728-7.631,5.545c0,3.888,3.744,5.689,7.631,5.689c3.313,0,6.553-1.585,7.49-3.961V292.679z"/>
		<path display="inline" fill="#787878" d="M1271.17,303.912h-5.4v-46.804h5.4V303.912z"/>
		<path display="inline" fill="#787878" d="M1282.332,276.55h-5.186v-4.608h5.186v-8.425h5.4v8.425h7.703v4.608h-7.703v18.722
			c0,3.096,1.512,4.464,4.248,4.464c1.512,0,3.096-0.575,4.176-1.296v5.041c-1.225,0.647-3.096,1.08-5.041,1.08
			c-5.184,0-8.783-2.809-8.783-8.713V276.55z"/>
		<path display="inline" fill="#787878" d="M1303.641,257.108h5.4v18.865c1.873-2.521,5.33-4.681,9.434-4.681
			c7.273,0,11.232,4.681,11.232,11.665v20.954h-5.473v-20.09c0-4.464-2.232-7.561-7.057-7.561c-3.744,0-6.984,2.521-8.137,5.977
			v21.674h-5.4V257.108z"/>
		<path display="inline" fill="#787878" d="M1360.883,285.19v18.722h-5.689V259.7h16.418c8.855,0,14.473,4.465,14.473,12.817
			c0,7.345-4.32,11.52-11.232,12.457l13.033,18.938h-6.48l-12.674-18.722H1360.883z M1360.883,280.366h10.584
			c5.832,0,9-2.952,9-7.849c0-4.897-3.168-7.849-9-7.849h-10.584V280.366z"/>
		<path display="inline" fill="#787878" d="M1397.168,265.749c-1.871,0-3.455-1.584-3.455-3.456c0-1.944,1.584-3.457,3.455-3.457
			c1.945,0,3.529,1.513,3.529,3.457C1400.697,264.165,1399.113,265.749,1397.168,265.749z M1399.904,303.912h-5.4v-31.971h5.4
			V303.912z"/>
		<path display="inline" fill="#787878" d="M1412.504,295.127c1.01,3.313,3.816,4.897,7.561,4.897c3.816,0,6.553-1.512,6.553-4.752
			c0-2.232-1.439-3.601-4.752-4.465l-6.336-1.656c-4.537-1.151-7.705-3.456-7.705-8.424c0-5.689,4.969-9.434,11.449-9.434
			c7.057,0,11.232,3.457,12.385,9.073h-5.4c-0.936-2.881-3.168-4.536-7.057-4.536c-3.168,0-6.121,1.512-6.121,4.608
			c0,2.16,1.441,3.168,4.465,4.032l6.193,1.512c5.473,1.44,8.137,4.465,8.137,8.929c0,6.049-5.041,9.65-11.881,9.65
			c-6.986,0-12.098-3.528-13.105-9.434H1412.504z"/>
		<path display="inline" fill="#787878" d="M1448.217,289.15l-3.457,3.313v11.449h-5.4v-46.804h5.4v29.019l14.617-14.186h7.129
			l-14.402,13.825l14.906,18.146h-6.625L1448.217,289.15z"/>
		<path display="inline" fill="#787878" d="M1494.799,303.912h-5.689V259.7h5.689V303.912z"/>
		<path display="inline" fill="#787878" d="M1504.877,271.941h5.4v4.032c1.873-2.521,5.33-4.681,9.434-4.681
			c7.273,0,11.232,4.681,11.232,11.665v20.954h-5.473v-20.09c0-4.464-2.232-7.561-7.057-7.561c-3.744,0-6.984,2.521-8.137,5.977
			v21.674h-5.4V271.941z"/>
		<path display="inline" fill="#787878" d="M1556.07,262.076c-1.008-0.647-2.232-0.863-3.385-0.863
			c-3.168,0-5.256,2.016-5.256,5.832v4.897h7.201v4.608h-7.201v27.362h-5.328V276.55h-5.4v-4.608h5.4v-5.328
			c0-6.409,4.176-10.153,9.793-10.153c1.727,0,2.951,0.216,4.176,0.72V262.076z"/>
		<path display="inline" fill="#787878" d="M1572.775,304.561c-8.785,0-14.689-6.841-14.689-16.634
			c0-9.793,5.904-16.634,14.689-16.634c8.711,0,14.688,6.841,14.688,16.634C1587.463,297.72,1581.486,304.561,1572.775,304.561z
			 M1572.775,276.046c-5.762,0-9.217,4.896-9.217,11.881c0,6.984,3.455,11.881,9.217,11.881c5.76,0,9.217-4.896,9.217-11.881
			C1581.992,280.942,1578.535,276.046,1572.775,276.046z"/>
		<path display="inline" fill="#787878" d="M1611.223,277.342c-0.865-0.576-2.232-0.864-3.602-0.864
			c-3.385,0-6.336,2.232-7.416,5.977v21.458h-5.4v-31.971h5.4v4.177c1.367-2.736,4.393-4.825,7.92-4.825
			c1.369,0,2.521,0.217,3.098,0.504V277.342z"/>
		<path display="inline" fill="#787878" d="M1650.32,271.293c6.48,0,10.08,4.537,10.08,11.449v21.17h-5.473v-20.306
			c0-4.465-1.943-7.417-6.049-7.417c-3.24,0-6.049,2.232-7.057,5.688v22.034h-5.4v-20.306c0-4.465-1.943-7.417-6.049-7.417
			c-3.24,0-6.047,2.232-7.057,5.688v22.034h-5.4v-31.971h5.4v3.744c1.584-2.521,4.682-4.393,8.641-4.393
			c4.033,0,7.129,2.089,8.643,5.112C1642.615,273.525,1645.855,271.293,1650.32,271.293z"/>
		<path display="inline" fill="#787878" d="M1687.541,303.912v-2.376c-1.225,1.296-4.607,2.952-8.424,2.952
			c-6.48,0-11.881-3.889-11.881-10.225c0-5.977,5.4-10.009,12.24-10.009c3.313,0,6.697,1.367,8.064,2.592v-4.032
			c0-3.961-2.447-6.841-7.057-6.841c-3.385,0-5.545,1.44-6.553,4.393h-5.328c1.08-5.4,5.832-9.073,11.953-9.073
			c7.633,0,12.17,4.32,12.17,11.306v21.314H1687.541z M1687.541,292.679c-0.936-2.376-4.176-3.96-7.488-3.96
			c-3.889,0-7.633,1.728-7.633,5.545c0,3.888,3.744,5.689,7.633,5.689c3.313,0,6.553-1.585,7.488-3.961V292.679z"/>
		<path display="inline" fill="#787878" d="M1703.236,276.55h-5.184v-4.608h5.184v-8.425h5.4v8.425h7.705v4.608h-7.705v18.722
			c0,3.096,1.512,4.464,4.248,4.464c1.512,0,3.098-0.575,4.178-1.296v5.041c-1.225,0.647-3.098,1.08-5.041,1.08
			c-5.186,0-8.785-2.809-8.785-8.713V276.55z"/>
		<path display="inline" fill="#787878" d="M1727.211,265.749c-1.871,0-3.455-1.584-3.455-3.456c0-1.944,1.584-3.457,3.455-3.457
			c1.945,0,3.529,1.513,3.529,3.457C1730.74,264.165,1729.156,265.749,1727.211,265.749z M1729.947,303.912h-5.4v-31.971h5.4
			V303.912z"/>
		<path display="inline" fill="#787878" d="M1751.98,304.561c-8.785,0-14.689-6.841-14.689-16.634
			c0-9.793,5.904-16.634,14.689-16.634c8.713,0,14.689,6.841,14.689,16.634C1766.67,297.72,1760.693,304.561,1751.98,304.561z
			 M1751.98,276.046c-5.76,0-9.217,4.896-9.217,11.881c0,6.984,3.457,11.881,9.217,11.881s9.217-4.896,9.217-11.881
			C1761.197,280.942,1757.74,276.046,1751.98,276.046z"/>
		<path display="inline" fill="#787878" d="M1774.012,271.941h5.4v4.032c1.871-2.521,5.328-4.681,9.432-4.681
			c7.273,0,11.234,4.681,11.234,11.665v20.954h-5.473v-20.09c0-4.464-2.232-7.561-7.057-7.561c-3.744,0-6.984,2.521-8.137,5.977
			v21.674h-5.4V271.941z"/>
		<path display="inline" fill="#787878" d="M985.984,390.313l-13.969-33.699v33.699h-5.4v-44.212h6.408L988,382.392l14.905-36.291
			h6.192v44.212h-5.4v-33.699l-13.825,33.699H985.984z"/>
		<path display="inline" fill="#787878" d="M1037.176,390.313v-2.376c-1.225,1.296-4.609,2.952-8.425,2.952
			c-6.48,0-11.881-3.889-11.881-10.225c0-5.977,5.4-10.009,12.241-10.009c3.311,0,6.696,1.367,8.065,2.592v-4.032
			c0-3.961-2.449-6.841-7.057-6.841c-3.385,0-5.545,1.44-6.553,4.393h-5.328c1.08-5.4,5.832-9.073,11.954-9.073
			c7.631,0,12.168,4.32,12.168,11.306v21.314H1037.176z M1037.176,379.079c-0.938-2.376-4.178-3.96-7.49-3.96
			c-3.888,0-7.632,1.728-7.632,5.545c0,3.888,3.744,5.689,7.632,5.689c3.312,0,6.552-1.585,7.49-3.961V379.079z"/>
		<path display="inline" fill="#787878" d="M1067.992,363.742c-0.865-0.576-2.232-0.864-3.602-0.864
			c-3.385,0-6.336,2.232-7.416,5.977v21.458h-5.4v-31.971h5.4v4.177c1.367-2.736,4.393-4.825,7.92-4.825
			c1.369,0,2.521,0.217,3.098,0.504V363.742z"/>
		<path display="inline" fill="#787878" d="M1083.543,375.551l-3.457,3.313v11.449h-5.4v-46.804h5.4v29.019l14.617-14.186h7.129
			l-14.402,13.825l14.906,18.146h-6.625L1083.543,375.551z"/>
		<path display="inline" fill="#787878" d="M1132.432,380.735c-1.152,6.049-5.688,10.226-12.889,10.226
			c-8.713,0-14.689-6.697-14.689-16.562c0-9.577,5.832-16.706,14.545-16.706c8.785,0,13.465,6.409,13.465,15.697v1.944h-22.609
			c0.072,6.841,3.889,11.018,9.289,11.018c3.961,0,6.912-2.017,7.777-5.617H1132.432z M1110.398,371.23h16.994
			c-0.072-4.752-2.594-8.929-7.922-8.929C1114.646,362.302,1111.189,365.614,1110.398,371.23z"/>
		<path display="inline" fill="#787878" d="M1141.574,362.95h-5.186v-4.608h5.186v-8.425h5.4v8.425h7.703v4.608h-7.703v18.722
			c0,3.096,1.512,4.464,4.248,4.464c1.512,0,3.096-0.575,4.176-1.296v5.041c-1.225,0.647-3.096,1.08-5.041,1.08
			c-5.184,0-8.783-2.809-8.783-8.713V362.95z"/>
		<path display="inline" fill="#787878" d="M1168.283,402.554h-5.4v-44.212h5.4v3.744c1.656-2.304,5.041-4.393,9.002-4.393
			c9.432,0,14.4,7.777,14.4,16.634c0,8.856-4.969,16.634-14.4,16.634c-3.961,0-7.346-2.089-9.002-4.393V402.554z M1168.283,380.808
			c1.656,3.313,4.824,5.257,8.209,5.257c6.121,0,9.721-4.969,9.721-11.737c0-6.769-3.6-11.737-9.721-11.737
			c-3.385,0-6.553,1.944-8.209,5.257V380.808z"/>
		<path display="inline" fill="#787878" d="M1204.428,390.313h-5.4v-46.804h5.4V390.313z"/>
		<path display="inline" fill="#787878" d="M1232.078,390.313v-2.376c-1.225,1.296-4.609,2.952-8.426,2.952
			c-6.48,0-11.881-3.889-11.881-10.225c0-5.977,5.4-10.009,12.242-10.009c3.311,0,6.695,1.367,8.064,2.592v-4.032
			c0-3.961-2.449-6.841-7.057-6.841c-3.385,0-5.545,1.44-6.553,4.393h-5.328c1.08-5.4,5.832-9.073,11.953-9.073
			c7.631,0,12.168,4.32,12.168,11.306v21.314H1232.078z M1232.078,379.079c-0.938-2.376-4.178-3.96-7.49-3.96
			c-3.887,0-7.631,1.728-7.631,5.545c0,3.888,3.744,5.689,7.631,5.689c3.313,0,6.553-1.585,7.49-3.961V379.079z"/>
		<path display="inline" fill="#787878" d="M1258.717,357.693c7.199,0,11.736,4.177,12.816,10.297h-5.545
			c-0.719-3.456-3.455-5.544-7.271-5.544c-5.473,0-9.072,4.897-9.072,11.881c0,6.984,3.6,11.881,9.072,11.881
			c3.816,0,6.553-2.088,7.271-5.544h5.545c-1.08,6.12-5.617,10.297-12.816,10.297c-8.568,0-14.545-6.697-14.545-16.634
			C1244.172,364.391,1250.148,357.693,1258.717,357.693z"/>
		<path display="inline" fill="#787878" d="M1303.717,380.735c-1.152,6.049-5.688,10.226-12.889,10.226
			c-8.713,0-14.689-6.697-14.689-16.562c0-9.577,5.832-16.706,14.545-16.706c8.785,0,13.465,6.409,13.465,15.697v1.944h-22.609
			c0.072,6.841,3.889,11.018,9.289,11.018c3.961,0,6.912-2.017,7.777-5.617H1303.717z M1281.684,371.23h16.994
			c-0.072-4.752-2.594-8.929-7.922-8.929C1285.932,362.302,1282.475,365.614,1281.684,371.23z"/>
		<path display="inline" fill="#787878" d="M1343.242,348.477c-1.008-0.647-2.232-0.863-3.383-0.863
			c-3.17,0-5.258,2.016-5.258,5.832v4.897h7.201v4.608h-7.201v27.362h-5.328V362.95h-5.4v-4.608h5.4v-5.328
			c0-6.409,4.176-10.153,9.793-10.153c1.729,0,2.953,0.216,4.176,0.72V348.477z"/>
		<path display="inline" fill="#787878" d="M1359.947,390.961c-8.785,0-14.689-6.841-14.689-16.634
			c0-9.793,5.904-16.634,14.689-16.634c8.711,0,14.688,6.841,14.688,16.634C1374.635,384.12,1368.658,390.961,1359.947,390.961z
			 M1359.947,362.446c-5.762,0-9.217,4.897-9.217,11.881c0,6.984,3.455,11.881,9.217,11.881c5.76,0,9.217-4.897,9.217-11.881
			C1369.164,367.343,1365.707,362.446,1359.947,362.446z"/>
		<path display="inline" fill="#787878" d="M1398.395,363.742c-0.863-0.576-2.232-0.864-3.6-0.864c-3.385,0-6.338,2.232-7.418,5.977
			v21.458h-5.4v-31.971h5.4v4.177c1.369-2.736,4.393-4.825,7.922-4.825c1.367,0,2.52,0.217,3.096,0.504V363.742z"/>
		<path display="inline" fill="#787878" d="M1449.588,346.101v5.041h-22.539v13.969h20.449v5.04h-20.449v15.05h22.539v5.112h-28.154
			v-44.212H1449.588z"/>
		<path display="inline" fill="#787878" d="M1490.484,357.693c6.48,0,10.08,4.537,10.08,11.449v21.17h-5.473v-20.306
			c0-4.465-1.943-7.417-6.049-7.417c-3.24,0-6.049,2.232-7.057,5.688v22.034h-5.4v-20.306c0-4.465-1.943-7.417-6.049-7.417
			c-3.24,0-6.047,2.232-7.057,5.688v22.034h-5.4v-31.971h5.4v3.744c1.584-2.521,4.682-4.393,8.641-4.393
			c4.033,0,7.129,2.089,8.643,5.112C1482.779,359.926,1486.02,357.693,1490.484,357.693z"/>
		<path display="inline" fill="#787878" d="M1534.979,380.735c-1.152,6.049-5.688,10.226-12.889,10.226
			c-8.713,0-14.689-6.697-14.689-16.562c0-9.577,5.832-16.706,14.545-16.706c8.785,0,13.465,6.409,13.465,15.697v1.944h-22.609
			c0.072,6.841,3.889,11.018,9.289,11.018c3.961,0,6.912-2.017,7.777-5.617H1534.979z M1512.945,371.23h16.994
			c-0.072-4.752-2.594-8.929-7.922-8.929C1517.193,362.302,1513.736,365.614,1512.945,371.23z"/>
		<path display="inline" fill="#787878" d="M1559.025,363.742c-0.865-0.576-2.232-0.864-3.602-0.864
			c-3.385,0-6.336,2.232-7.416,5.977v21.458h-5.4v-31.971h5.4v4.177c1.367-2.736,4.393-4.825,7.92-4.825
			c1.369,0,2.521,0.217,3.098,0.504V363.742z"/>
		<path display="inline" fill="#787878" d="M1585.953,385.776c-1.584,2.232-4.969,4.32-8.928,4.32
			c-9.361,0-14.33-7.777-14.33-16.201c0-8.497,4.969-16.202,14.33-16.202c3.959,0,7.344,2.017,8.928,4.249v-3.601h5.473v29.45
			c0,10.514-6.049,15.482-14.258,15.482c-7.775,0-12.672-4.032-13.68-10.585h5.328c0.936,4.032,3.961,5.977,8.352,5.977
			c5.762,0,8.785-3.601,8.785-10.513V385.776z M1585.953,367.486c-1.656-3.024-4.68-4.968-8.137-4.968
			c-6.049,0-9.576,4.752-9.576,11.377c0,6.552,3.527,11.305,9.576,11.305c3.457,0,6.48-1.944,8.137-4.969V367.486z"/>
		<path display="inline" fill="#787878" d="M1626.346,380.735c-1.152,6.049-5.689,10.226-12.889,10.226
			c-8.713,0-14.689-6.697-14.689-16.562c0-9.577,5.832-16.706,14.545-16.706c8.785,0,13.465,6.409,13.465,15.697v1.944h-22.609
			c0.072,6.841,3.887,11.018,9.289,11.018c3.959,0,6.912-2.017,7.775-5.617H1626.346z M1604.311,371.23h16.994
			c-0.072-4.752-2.592-8.929-7.92-8.929C1608.561,362.302,1605.104,365.614,1604.311,371.23z"/>
		<path display="inline" fill="#787878" d="M1633.975,358.342h5.4v4.032c1.871-2.521,5.328-4.681,9.432-4.681
			c7.273,0,11.234,4.681,11.234,11.665v20.954h-5.473v-20.09c0-4.464-2.232-7.561-7.057-7.561c-3.744,0-6.984,2.52-8.137,5.977
			v21.674h-5.4V358.342z"/>
		<path display="inline" fill="#787878" d="M1681.424,357.693c7.199,0,11.736,4.177,12.816,10.297h-5.545
			c-0.719-3.456-3.455-5.544-7.271-5.544c-5.473,0-9.072,4.897-9.072,11.881c0,6.984,3.6,11.881,9.072,11.881
			c3.816,0,6.553-2.088,7.271-5.544h5.545c-1.08,6.12-5.617,10.297-12.816,10.297c-8.568,0-14.545-6.697-14.545-16.634
			C1666.879,364.391,1672.855,357.693,1681.424,357.693z"/>
		<path display="inline" fill="#787878" d="M1703.957,352.149c-1.871,0-3.455-1.584-3.455-3.456c0-1.944,1.584-3.457,3.455-3.457
			c1.945,0,3.529,1.513,3.529,3.457C1707.486,350.565,1705.902,352.149,1703.957,352.149z M1706.693,390.313h-5.4v-31.971h5.4
			V390.313z"/>
		<path display="inline" fill="#787878" d="M1741.617,380.735c-1.152,6.049-5.689,10.226-12.889,10.226
			c-8.713,0-14.689-6.697-14.689-16.562c0-9.577,5.832-16.706,14.545-16.706c8.785,0,13.465,6.409,13.465,15.697v1.944h-22.609
			c0.072,6.841,3.887,11.018,9.289,11.018c3.959,0,6.912-2.017,7.775-5.617H1741.617z M1719.582,371.23h16.994
			c-0.072-4.752-2.592-8.929-7.92-8.929C1723.832,362.302,1720.375,365.614,1719.582,371.23z"/>
		<path display="inline" fill="#787878" d="M1752.342,381.527c1.008,3.313,3.816,4.896,7.561,4.896c3.816,0,6.553-1.512,6.553-4.752
			c0-2.232-1.439-3.601-4.752-4.465l-6.338-1.656c-4.535-1.151-7.703-3.456-7.703-8.424c0-5.688,4.967-9.434,11.447-9.434
			c7.057,0,11.234,3.457,12.387,9.073h-5.4c-0.938-2.881-3.17-4.536-7.057-4.536c-3.17,0-6.121,1.512-6.121,4.608
			c0,2.16,1.439,3.168,4.465,4.032l6.191,1.512c5.473,1.441,8.137,4.465,8.137,8.929c0,6.049-5.041,9.65-11.881,9.65
			c-6.984,0-12.098-3.528-13.105-9.434H1752.342z"/>
	</g>
</g>
</svg>
