<?xml version="1.0" encoding="UTF-8" standalone="no"?>
<!-- Generator: Adobe Illustrator 17.1.0, SVG Export Plug-In . SVG Version: 6.00 Build 0)  -->

<svg
   xmlns:dc="http://purl.org/dc/elements/1.1/"
   xmlns:cc="http://creativecommons.org/ns#"
   xmlns:rdf="http://www.w3.org/1999/02/22-rdf-syntax-ns#"
   xmlns:svg="http://www.w3.org/2000/svg"
   xmlns="http://www.w3.org/2000/svg"
   xmlns:sodipodi="http://sodipodi.sourceforge.net/DTD/sodipodi-0.dtd"
   xmlns:inkscape="http://www.inkscape.org/namespaces/inkscape"
   version="1.1"
   id="logo"
   x="0px"
   y="0px"
   xml:space="preserve"
   inkscape:version="0.91 r13725"
   sodipodi:docname="logo.svg"
   width="674.646"
   height="203.103"><metadata
     id="metadata131"><rdf:RDF><cc:Work
         rdf:about=""><dc:format>image/svg+xml</dc:format><dc:type
           rdf:resource="http://purl.org/dc/dcmitype/StillImage" /><dc:title></dc:title></cc:Work></rdf:RDF></metadata><defs
     id="defs129" /><sodipodi:namedview
     pagecolor="#ffffff"
     bordercolor="#666666"
     borderopacity="1"
     objecttolerance="10"
     gridtolerance="10"
     guidetolerance="10"
     inkscape:pageopacity="0"
     inkscape:pageshadow="2"
     inkscape:window-width="1920"
     inkscape:window-height="1010"
     id="namedview127"
     showgrid="false"
     inkscape:zoom="2.36"
     inkscape:cx="156.00015"
     inkscape:cy="-32.514537"
     inkscape:window-x="1920"
     inkscape:window-y="0"
     inkscape:window-maximized="1"
     inkscape:current-layer="logo"
     fit-margin-top="0"
     fit-margin-left="0"
     fit-margin-right="0"
     fit-margin-bottom="0" /><g
     id="g3"
     transform="translate(-193.8,-190.422)"><g
       id="g5"><path
         d="m 217.211,235.349 c -12.657,0 -23.411,-9.176 -23.411,-22.463 0,-12.974 10.754,-22.464 23.411,-22.464 12.34,0 23.095,9.491 23.095,22.464 0,13.286 -10.755,22.463 -23.095,22.463 z"
         id="path7"
         inkscape:connector-curvature="0"
         style="fill:#db3c26" /><g
         id="g9"><path
           d="m 446.685,287.039 c -5.402,-3.178 -12.396,-4.767 -19.707,-4.767 -13.351,0 -24.161,6.993 -27.019,20.023 l 0,88.051 -39.417,0 0,-142.087 39.417,0 0,13.983 c 6.039,-10.171 17.799,-17.165 31.786,-17.165 6.68,0 12.716,1.273 14.94,2.545 l 0,39.417 z"
           id="path11"
           inkscape:connector-curvature="0"
           style="fill:#a0a0a0" /><rect
           x="462.13901"
           y="248.259"
           width="39.411999"
           height="142.086"
           id="rect13"
           style="fill:#a0a0a0" /><path
           d="m 673.395,245.078 c 29.249,0 46.73,20.344 46.73,52.452 l 0,92.816 -39.414,0 0,-84.552 c 0,-15.258 -6.679,-25.43 -20.344,-25.43 -10.172,0 -19.392,6.356 -21.935,18.436 l 0,91.546 -39.732,0 0,-84.552 c 0,-15.258 -6.357,-25.43 -20.029,-25.43 -10.171,0 -19.707,6.356 -22.248,18.436 l 0,91.546 -39.418,0 0,-142.087 39.418,0 0,11.76 c 6.994,-8.9 20.026,-14.942 35.92,-14.942 16.844,0 30.194,7.63 38.143,18.121 9.216,-10.172 22.888,-18.12 42.909,-18.12 z"
           id="path15"
           inkscape:connector-curvature="0"
           style="fill:#a0a0a0" /><path
           d="m 867.495,343.939 c -5.086,30.195 -27.337,49.586 -62.938,49.586 -41.326,0 -68.978,-30.198 -68.978,-74.064 0,-42.913 28.608,-74.384 68.341,-74.384 41.643,0 64.526,28.926 64.526,70.569 l 0,12.08 -94.725,0 c 1.271,21.295 13.35,34.012 30.835,34.012 13.35,0 23.203,-5.723 26.381,-17.799 l 36.558,0 z m -92.819,-40.053 54.991,0 c -0.319,-14.94 -9.216,-26.7 -25.429,-26.7 -15.258,0 -26.068,9.215 -29.562,26.7 z"
           id="path17"
           inkscape:connector-curvature="0"
           style="fill:#a0a0a0" /><path
           d="m 276.43,195.173 -23.645,0 0,34.65 21.1,0 c 20.981,0 31.152,11.761 31.152,29.241 0,16.851 -10.171,28.927 -31.152,28.927 l -36.554,0 0,-39.731 -40.369,0 0,142.086 40.369,0 0,-67.706 39.099,0 c 41.321,0 68.659,-22.252 68.659,-63.576 0,-41.639 -27.338,-63.891 -68.659,-63.891 z"
           id="path19"
           inkscape:connector-curvature="0"
           style="fill:#a0a0a0" /></g></g><g
       display="none"
       id="g21"
       style="display:none"><path
         display="inline"
         d="m 972.303,286.198 0,17.714 -5.688,0 0,-44.212 16.562,0 c 8.929,0 14.545,4.536 14.545,13.249 0,8.641 -5.616,13.249 -14.545,13.249 l -10.874,0 z m 10.729,-21.529 -10.729,0 0,16.489 10.729,0 c 5.977,0 9.073,-3.24 9.073,-8.209 0,-5.04 -3.097,-8.28 -9.073,-8.28 z"
         id="path23"
         inkscape:connector-curvature="0"
         style="display:inline;fill:#787878" /><path
         display="inline"
         d="m 1029.76,303.912 -5.473,0 0,-4.032 c -1.8,2.521 -5.185,4.681 -9.288,4.681 -7.273,0 -11.161,-4.681 -11.161,-11.665 l 0,-20.954 5.473,0 0,20.09 c 0,4.464 2.16,7.56 6.984,7.56 3.744,0 6.841,-2.521 7.992,-5.977 l 0,-21.674 5.473,0 0,31.971 z"
         id="path25"
         inkscape:connector-curvature="0"
         style="display:inline;fill:#787878" /><path
         display="inline"
         d="m 1044.734,303.912 -5.473,0 0,-46.804 5.473,0 0,18.577 c 1.584,-2.304 5.041,-4.393 9,-4.393 9.361,0 14.402,7.633 14.402,16.634 0,9.072 -5.041,16.634 -14.402,16.634 -3.959,0 -7.416,-2.089 -9,-4.393 l 0,3.745 z m 0,-9.505 c 1.656,3.313 4.824,5.257 8.209,5.257 6.119,0 9.721,-4.969 9.721,-11.737 0,-6.769 -3.602,-11.737 -9.721,-11.737 -3.385,0 -6.553,1.944 -8.209,5.257 l 0,12.96 z"
         id="path27"
         inkscape:connector-curvature="0"
         style="display:inline;fill:#787878" /><path
         display="inline"
         d="m 1080.877,303.912 -5.4,0 0,-46.804 5.4,0 0,46.804 z"
         id="path29"
         inkscape:connector-curvature="0"
         style="display:inline;fill:#787878" /><path
         display="inline"
         d="m 1093.189,265.749 c -1.871,0 -3.455,-1.584 -3.455,-3.456 0,-1.944 1.584,-3.457 3.455,-3.457 1.945,0 3.529,1.513 3.529,3.457 10e-4,1.872 -1.583,3.456 -3.529,3.456 z m 2.737,38.163 -5.4,0 0,-31.971 5.4,0 0,31.971 z"
         id="path31"
         inkscape:connector-curvature="0"
         style="display:inline;fill:#787878" /><path
         display="inline"
         d="m 1117.814,271.293 c 7.201,0 11.738,4.177 12.818,10.297 l -5.545,0 c -0.721,-3.456 -3.457,-5.544 -7.273,-5.544 -5.473,0 -9.072,4.896 -9.072,11.881 0,6.984 3.6,11.881 9.072,11.881 3.816,0 6.553,-2.088 7.273,-5.544 l 5.545,0 c -1.08,6.12 -5.617,10.297 -12.818,10.297 -8.568,0 -14.545,-6.697 -14.545,-16.634 10e-4,-9.937 5.977,-16.634 14.545,-16.634 z"
         id="path33"
         inkscape:connector-curvature="0"
         style="display:inline;fill:#787878" /><path
         display="inline"
         d="m 1190.393,259.7 0,44.212 -5.689,0 0,-20.162 -24.984,0 0,20.162 -5.689,0 0,-44.212 5.689,0 0,18.938 24.984,0 0,-18.938 5.689,0 z"
         id="path35"
         inkscape:connector-curvature="0"
         style="display:inline;fill:#787878" /><path
         display="inline"
         d="m 1225.742,294.335 c -1.152,6.049 -5.689,10.226 -12.889,10.226 -8.713,0 -14.689,-6.697 -14.689,-16.562 0,-9.577 5.832,-16.706 14.545,-16.706 8.785,0 13.465,6.409 13.465,15.697 l 0,1.944 -22.609,0 c 0.072,6.841 3.887,11.018 9.289,11.018 3.959,0 6.912,-2.017 7.775,-5.617 l 5.113,0 z m -22.035,-9.505 16.994,0 c -0.072,-4.752 -2.592,-8.929 -7.92,-8.929 -4.824,0 -8.281,3.313 -9.074,8.929 z"
         id="path37"
         inkscape:connector-curvature="0"
         style="display:inline;fill:#787878" /><path
         display="inline"
         d="m 1251.373,303.912 0,-2.376 c -1.225,1.296 -4.609,2.952 -8.426,2.952 -6.48,0 -11.881,-3.889 -11.881,-10.225 0,-5.977 5.4,-10.009 12.242,-10.009 3.311,0 6.695,1.367 8.064,2.592 l 0,-4.032 c 0,-3.961 -2.449,-6.841 -7.057,-6.841 -3.385,0 -5.545,1.44 -6.553,4.393 l -5.328,0 c 1.08,-5.4 5.832,-9.073 11.953,-9.073 7.631,0 12.168,4.32 12.168,11.306 l 0,21.314 -5.182,0 z m 0,-11.233 c -0.938,-2.376 -4.178,-3.96 -7.49,-3.96 -3.887,0 -7.631,1.728 -7.631,5.545 0,3.888 3.744,5.689 7.631,5.689 3.313,0 6.553,-1.585 7.49,-3.961 l 0,-3.313 z"
         id="path39"
         inkscape:connector-curvature="0"
         style="display:inline;fill:#787878" /><path
         display="inline"
         d="m 1271.17,303.912 -5.4,0 0,-46.804 5.4,0 0,46.804 z"
         id="path41"
         inkscape:connector-curvature="0"
         style="display:inline;fill:#787878" /><path
         display="inline"
         d="m 1282.332,276.55 -5.186,0 0,-4.608 5.186,0 0,-8.425 5.4,0 0,8.425 7.703,0 0,4.608 -7.703,0 0,18.722 c 0,3.096 1.512,4.464 4.248,4.464 1.512,0 3.096,-0.575 4.176,-1.296 l 0,5.041 c -1.225,0.647 -3.096,1.08 -5.041,1.08 -5.184,0 -8.783,-2.809 -8.783,-8.713 l 0,-19.298 z"
         id="path43"
         inkscape:connector-curvature="0"
         style="display:inline;fill:#787878" /><path
         display="inline"
         d="m 1303.641,257.108 5.4,0 0,18.865 c 1.873,-2.521 5.33,-4.681 9.434,-4.681 7.273,0 11.232,4.681 11.232,11.665 l 0,20.954 -5.473,0 0,-20.09 c 0,-4.464 -2.232,-7.561 -7.057,-7.561 -3.744,0 -6.984,2.521 -8.137,5.977 l 0,21.674 -5.4,0 0,-46.803 z"
         id="path45"
         inkscape:connector-curvature="0"
         style="display:inline;fill:#787878" /><path
         display="inline"
         d="m 1360.883,285.19 0,18.722 -5.689,0 0,-44.212 16.418,0 c 8.855,0 14.473,4.465 14.473,12.817 0,7.345 -4.32,11.52 -11.232,12.457 l 13.033,18.938 -6.48,0 -12.674,-18.722 -7.849,0 z m 0,-4.824 10.584,0 c 5.832,0 9,-2.952 9,-7.849 0,-4.897 -3.168,-7.849 -9,-7.849 l -10.584,0 0,15.698 z"
         id="path47"
         inkscape:connector-curvature="0"
         style="display:inline;fill:#787878" /><path
         display="inline"
         d="m 1397.168,265.749 c -1.871,0 -3.455,-1.584 -3.455,-3.456 0,-1.944 1.584,-3.457 3.455,-3.457 1.945,0 3.529,1.513 3.529,3.457 0,1.872 -1.584,3.456 -3.529,3.456 z m 2.736,38.163 -5.4,0 0,-31.971 5.4,0 0,31.971 z"
         id="path49"
         inkscape:connector-curvature="0"
         style="display:inline;fill:#787878" /><path
         display="inline"
         d="m 1412.504,295.127 c 1.01,3.313 3.816,4.897 7.561,4.897 3.816,0 6.553,-1.512 6.553,-4.752 0,-2.232 -1.439,-3.601 -4.752,-4.465 l -6.336,-1.656 c -4.537,-1.151 -7.705,-3.456 -7.705,-8.424 0,-5.689 4.969,-9.434 11.449,-9.434 7.057,0 11.232,3.457 12.385,9.073 l -5.4,0 c -0.936,-2.881 -3.168,-4.536 -7.057,-4.536 -3.168,0 -6.121,1.512 -6.121,4.608 0,2.16 1.441,3.168 4.465,4.032 l 6.193,1.512 c 5.473,1.44 8.137,4.465 8.137,8.929 0,6.049 -5.041,9.65 -11.881,9.65 -6.986,0 -12.098,-3.528 -13.105,-9.434 l 5.614,0 z"
         id="path51"
         inkscape:connector-curvature="0"
         style="display:inline;fill:#787878" /><path
         display="inline"
         d="m 1448.217,289.15 -3.457,3.313 0,11.449 -5.4,0 0,-46.804 5.4,0 0,29.019 14.617,-14.186 7.129,0 -14.402,13.825 14.906,18.146 -6.625,0 -12.168,-14.762 z"
         id="path53"
         inkscape:connector-curvature="0"
         style="display:inline;fill:#787878" /><path
         display="inline"
         d="m 1494.799,303.912 -5.689,0 0,-44.212 5.689,0 0,44.212 z"
         id="path55"
         inkscape:connector-curvature="0"
         style="display:inline;fill:#787878" /><path
         display="inline"
         d="m 1504.877,271.941 5.4,0 0,4.032 c 1.873,-2.521 5.33,-4.681 9.434,-4.681 7.273,0 11.232,4.681 11.232,11.665 l 0,20.954 -5.473,0 0,-20.09 c 0,-4.464 -2.232,-7.561 -7.057,-7.561 -3.744,0 -6.984,2.521 -8.137,5.977 l 0,21.674 -5.4,0 0,-31.97 z"
         id="path57"
         inkscape:connector-curvature="0"
         style="display:inline;fill:#787878" /><path
         display="inline"
         d="m 1556.07,262.076 c -1.008,-0.647 -2.232,-0.863 -3.385,-0.863 -3.168,0 -5.256,2.016 -5.256,5.832 l 0,4.897 7.201,0 0,4.608 -7.201,0 0,27.362 -5.328,0 0,-27.362 -5.4,0 0,-4.608 5.4,0 0,-5.328 c 0,-6.409 4.176,-10.153 9.793,-10.153 1.727,0 2.951,0.216 4.176,0.72 l 0,4.895 z"
         id="path59"
         inkscape:connector-curvature="0"
         style="display:inline;fill:#787878" /><path
         display="inline"
         d="m 1572.775,304.561 c -8.785,0 -14.689,-6.841 -14.689,-16.634 0,-9.793 5.904,-16.634 14.689,-16.634 8.711,0 14.688,6.841 14.688,16.634 0,9.793 -5.977,16.634 -14.688,16.634 z m 0,-28.515 c -5.762,0 -9.217,4.896 -9.217,11.881 0,6.984 3.455,11.881 9.217,11.881 5.76,0 9.217,-4.896 9.217,-11.881 0,-6.985 -3.457,-11.881 -9.217,-11.881 z"
         id="path61"
         inkscape:connector-curvature="0"
         style="display:inline;fill:#787878" /><path
         display="inline"
         d="m 1611.223,277.342 c -0.865,-0.576 -2.232,-0.864 -3.602,-0.864 -3.385,0 -6.336,2.232 -7.416,5.977 l 0,21.458 -5.4,0 0,-31.971 5.4,0 0,4.177 c 1.367,-2.736 4.393,-4.825 7.92,-4.825 1.369,0 2.521,0.217 3.098,0.504 l 0,5.544 z"
         id="path63"
         inkscape:connector-curvature="0"
         style="display:inline;fill:#787878" /><path
         display="inline"
         d="m 1650.32,271.293 c 6.48,0 10.08,4.537 10.08,11.449 l 0,21.17 -5.473,0 0,-20.306 c 0,-4.465 -1.943,-7.417 -6.049,-7.417 -3.24,0 -6.049,2.232 -7.057,5.688 l 0,22.034 -5.4,0 0,-20.306 c 0,-4.465 -1.943,-7.417 -6.049,-7.417 -3.24,0 -6.047,2.232 -7.057,5.688 l 0,22.034 -5.4,0 0,-31.971 5.4,0 0,3.744 c 1.584,-2.521 4.682,-4.393 8.641,-4.393 4.033,0 7.129,2.089 8.643,5.112 2.016,-2.877 5.256,-5.109 9.721,-5.109 z"
         id="path65"
         inkscape:connector-curvature="0"
         style="display:inline;fill:#787878" /><path
         display="inline"
         d="m 1687.541,303.912 0,-2.376 c -1.225,1.296 -4.607,2.952 -8.424,2.952 -6.48,0 -11.881,-3.889 -11.881,-10.225 0,-5.977 5.4,-10.009 12.24,-10.009 3.313,0 6.697,1.367 8.064,2.592 l 0,-4.032 c 0,-3.961 -2.447,-6.841 -7.057,-6.841 -3.385,0 -5.545,1.44 -6.553,4.393 l -5.328,0 c 1.08,-5.4 5.832,-9.073 11.953,-9.073 7.633,0 12.17,4.32 12.17,11.306 l 0,21.314 -5.184,0 z m 0,-11.233 c -0.936,-2.376 -4.176,-3.96 -7.488,-3.96 -3.889,0 -7.633,1.728 -7.633,5.545 0,3.888 3.744,5.689 7.633,5.689 3.313,0 6.553,-1.585 7.488,-3.961 l 0,-3.313 z"
         id="path67"
         inkscape:connector-curvature="0"
         style="display:inline;fill:#787878" /><path
         display="inline"
         d="m 1703.236,276.55 -5.184,0 0,-4.608 5.184,0 0,-8.425 5.4,0 0,8.425 7.705,0 0,4.608 -7.705,0 0,18.722 c 0,3.096 1.512,4.464 4.248,4.464 1.512,0 3.098,-0.575 4.178,-1.296 l 0,5.041 c -1.225,0.647 -3.098,1.08 -5.041,1.08 -5.186,0 -8.785,-2.809 -8.785,-8.713 l 0,-19.298 z"
         id="path69"
         inkscape:connector-curvature="0"
         style="display:inline;fill:#787878" /><path
         display="inline"
         d="m 1727.211,265.749 c -1.871,0 -3.455,-1.584 -3.455,-3.456 0,-1.944 1.584,-3.457 3.455,-3.457 1.945,0 3.529,1.513 3.529,3.457 0,1.872 -1.584,3.456 -3.529,3.456 z m 2.736,38.163 -5.4,0 0,-31.971 5.4,0 0,31.971 z"
         id="path71"
         inkscape:connector-curvature="0"
         style="display:inline;fill:#787878" /><path
         display="inline"
         d="m 1751.98,304.561 c -8.785,0 -14.689,-6.841 -14.689,-16.634 0,-9.793 5.904,-16.634 14.689,-16.634 8.713,0 14.689,6.841 14.689,16.634 10e-4,9.793 -5.976,16.634 -14.689,16.634 z m 0,-28.515 c -5.76,0 -9.217,4.896 -9.217,11.881 0,6.984 3.457,11.881 9.217,11.881 5.76,0 9.217,-4.896 9.217,-11.881 0,-6.985 -3.457,-11.881 -9.217,-11.881 z"
         id="path73"
         inkscape:connector-curvature="0"
         style="display:inline;fill:#787878" /><path
         display="inline"
         d="m 1774.012,271.941 5.4,0 0,4.032 c 1.871,-2.521 5.328,-4.681 9.432,-4.681 7.273,0 11.234,4.681 11.234,11.665 l 0,20.954 -5.473,0 0,-20.09 c 0,-4.464 -2.232,-7.561 -7.057,-7.561 -3.744,0 -6.984,2.521 -8.137,5.977 l 0,21.674 -5.4,0 0,-31.97 z"
         id="path75"
         inkscape:connector-curvature="0"
         style="display:inline;fill:#787878" /><path
         display="inline"
         d="m 985.984,390.313 -13.969,-33.699 0,33.699 -5.4,0 0,-44.212 6.408,0 14.977,36.291 14.905,-36.291 6.192,0 0,44.212 -5.4,0 0,-33.699 -13.825,33.699 -3.888,0 z"
         id="path77"
         inkscape:connector-curvature="0"
         style="display:inline;fill:#787878" /><path
         display="inline"
         d="m 1037.176,390.313 0,-2.376 c -1.225,1.296 -4.609,2.952 -8.425,2.952 -6.48,0 -11.881,-3.889 -11.881,-10.225 0,-5.977 5.4,-10.009 12.241,-10.009 3.311,0 6.696,1.367 8.065,2.592 l 0,-4.032 c 0,-3.961 -2.449,-6.841 -7.057,-6.841 -3.385,0 -5.545,1.44 -6.553,4.393 l -5.328,0 c 1.08,-5.4 5.832,-9.073 11.954,-9.073 7.631,0 12.168,4.32 12.168,11.306 l 0,21.314 -5.184,0 z m 0,-11.234 c -0.938,-2.376 -4.178,-3.96 -7.49,-3.96 -3.888,0 -7.632,1.728 -7.632,5.545 0,3.888 3.744,5.689 7.632,5.689 3.312,0 6.552,-1.585 7.49,-3.961 l 0,-3.313 z"
         id="path79"
         inkscape:connector-curvature="0"
         style="display:inline;fill:#787878" /><path
         display="inline"
         d="m 1067.992,363.742 c -0.865,-0.576 -2.232,-0.864 -3.602,-0.864 -3.385,0 -6.336,2.232 -7.416,5.977 l 0,21.458 -5.4,0 0,-31.971 5.4,0 0,4.177 c 1.367,-2.736 4.393,-4.825 7.92,-4.825 1.369,0 2.521,0.217 3.098,0.504 l 0,5.544 z"
         id="path81"
         inkscape:connector-curvature="0"
         style="display:inline;fill:#787878" /><path
         display="inline"
         d="m 1083.543,375.551 -3.457,3.313 0,11.449 -5.4,0 0,-46.804 5.4,0 0,29.019 14.617,-14.186 7.129,0 -14.402,13.825 14.906,18.146 -6.625,0 -12.168,-14.762 z"
         id="path83"
         inkscape:connector-curvature="0"
         style="display:inline;fill:#787878" /><path
         display="inline"
         d="m 1132.432,380.735 c -1.152,6.049 -5.688,10.226 -12.889,10.226 -8.713,0 -14.689,-6.697 -14.689,-16.562 0,-9.577 5.832,-16.706 14.545,-16.706 8.785,0 13.465,6.409 13.465,15.697 l 0,1.944 -22.609,0 c 0.072,6.841 3.889,11.018 9.289,11.018 3.961,0 6.912,-2.017 7.777,-5.617 l 5.111,0 z m -22.034,-9.505 16.994,0 c -0.072,-4.752 -2.594,-8.929 -7.922,-8.929 -4.824,0.001 -8.281,3.313 -9.072,8.929 z"
         id="path85"
         inkscape:connector-curvature="0"
         style="display:inline;fill:#787878" /><path
         display="inline"
         d="m 1141.574,362.95 -5.186,0 0,-4.608 5.186,0 0,-8.425 5.4,0 0,8.425 7.703,0 0,4.608 -7.703,0 0,18.722 c 0,3.096 1.512,4.464 4.248,4.464 1.512,0 3.096,-0.575 4.176,-1.296 l 0,5.041 c -1.225,0.647 -3.096,1.08 -5.041,1.08 -5.184,0 -8.783,-2.809 -8.783,-8.713 l 0,-19.298 z"
         id="path87"
         inkscape:connector-curvature="0"
         style="display:inline;fill:#787878" /><path
         display="inline"
         d="m 1168.283,402.554 -5.4,0 0,-44.212 5.4,0 0,3.744 c 1.656,-2.304 5.041,-4.393 9.002,-4.393 9.432,0 14.4,7.777 14.4,16.634 0,8.856 -4.969,16.634 -14.4,16.634 -3.961,0 -7.346,-2.089 -9.002,-4.393 l 0,15.986 z m 0,-21.746 c 1.656,3.313 4.824,5.257 8.209,5.257 6.121,0 9.721,-4.969 9.721,-11.737 0,-6.769 -3.6,-11.737 -9.721,-11.737 -3.385,0 -6.553,1.944 -8.209,5.257 l 0,12.96 z"
         id="path89"
         inkscape:connector-curvature="0"
         style="display:inline;fill:#787878" /><path
         display="inline"
         d="m 1204.428,390.313 -5.4,0 0,-46.804 5.4,0 0,46.804 z"
         id="path91"
         inkscape:connector-curvature="0"
         style="display:inline;fill:#787878" /><path
         display="inline"
         d="m 1232.078,390.313 0,-2.376 c -1.225,1.296 -4.609,2.952 -8.426,2.952 -6.48,0 -11.881,-3.889 -11.881,-10.225 0,-5.977 5.4,-10.009 12.242,-10.009 3.311,0 6.695,1.367 8.064,2.592 l 0,-4.032 c 0,-3.961 -2.449,-6.841 -7.057,-6.841 -3.385,0 -5.545,1.44 -6.553,4.393 l -5.328,0 c 1.08,-5.4 5.832,-9.073 11.953,-9.073 7.631,0 12.168,4.32 12.168,11.306 l 0,21.314 -5.182,0 z m 0,-11.234 c -0.938,-2.376 -4.178,-3.96 -7.49,-3.96 -3.887,0 -7.631,1.728 -7.631,5.545 0,3.888 3.744,5.689 7.631,5.689 3.313,0 6.553,-1.585 7.49,-3.961 l 0,-3.313 z"
         id="path93"
         inkscape:connector-curvature="0"
         style="display:inline;fill:#787878" /><path
         display="inline"
         d="m 1258.717,357.693 c 7.199,0 11.736,4.177 12.816,10.297 l -5.545,0 c -0.719,-3.456 -3.455,-5.544 -7.271,-5.544 -5.473,0 -9.072,4.897 -9.072,11.881 0,6.984 3.6,11.881 9.072,11.881 3.816,0 6.553,-2.088 7.271,-5.544 l 5.545,0 c -1.08,6.12 -5.617,10.297 -12.816,10.297 -8.568,0 -14.545,-6.697 -14.545,-16.634 0,-9.936 5.976,-16.634 14.545,-16.634 z"
         id="path95"
         inkscape:connector-curvature="0"
         style="display:inline;fill:#787878" /><path
         display="inline"
         d="m 1303.717,380.735 c -1.152,6.049 -5.688,10.226 -12.889,10.226 -8.713,0 -14.689,-6.697 -14.689,-16.562 0,-9.577 5.832,-16.706 14.545,-16.706 8.785,0 13.465,6.409 13.465,15.697 l 0,1.944 -22.609,0 c 0.072,6.841 3.889,11.018 9.289,11.018 3.961,0 6.912,-2.017 7.777,-5.617 l 5.111,0 z m -22.033,-9.505 16.994,0 c -0.072,-4.752 -2.594,-8.929 -7.922,-8.929 -4.824,0.001 -8.281,3.313 -9.072,8.929 z"
         id="path97"
         inkscape:connector-curvature="0"
         style="display:inline;fill:#787878" /><path
         display="inline"
         d="m 1343.242,348.477 c -1.008,-0.647 -2.232,-0.863 -3.383,-0.863 -3.17,0 -5.258,2.016 -5.258,5.832 l 0,4.897 7.201,0 0,4.608 -7.201,0 0,27.362 -5.328,0 0,-27.363 -5.4,0 0,-4.608 5.4,0 0,-5.328 c 0,-6.409 4.176,-10.153 9.793,-10.153 1.729,0 2.953,0.216 4.176,0.72 l 0,4.896 z"
         id="path99"
         inkscape:connector-curvature="0"
         style="display:inline;fill:#787878" /><path
         display="inline"
         d="m 1359.947,390.961 c -8.785,0 -14.689,-6.841 -14.689,-16.634 0,-9.793 5.904,-16.634 14.689,-16.634 8.711,0 14.688,6.841 14.688,16.634 0,9.793 -5.977,16.634 -14.688,16.634 z m 0,-28.515 c -5.762,0 -9.217,4.897 -9.217,11.881 0,6.984 3.455,11.881 9.217,11.881 5.76,0 9.217,-4.897 9.217,-11.881 0,-6.984 -3.457,-11.881 -9.217,-11.881 z"
         id="path101"
         inkscape:connector-curvature="0"
         style="display:inline;fill:#787878" /><path
         display="inline"
         d="m 1398.395,363.742 c -0.863,-0.576 -2.232,-0.864 -3.6,-0.864 -3.385,0 -6.338,2.232 -7.418,5.977 l 0,21.458 -5.4,0 0,-31.971 5.4,0 0,4.177 c 1.369,-2.736 4.393,-4.825 7.922,-4.825 1.367,0 2.52,0.217 3.096,0.504 l 0,5.544 z"
         id="path103"
         inkscape:connector-curvature="0"
         style="display:inline;fill:#787878" /><path
         display="inline"
         d="m 1449.588,346.101 0,5.041 -22.539,0 0,13.969 20.449,0 0,5.04 -20.449,0 0,15.05 22.539,0 0,5.112 -28.154,0 0,-44.212 28.154,0 z"
         id="path105"
         inkscape:connector-curvature="0"
         style="display:inline;fill:#787878" /><path
         display="inline"
         d="m 1490.484,357.693 c 6.48,0 10.08,4.537 10.08,11.449 l 0,21.17 -5.473,0 0,-20.306 c 0,-4.465 -1.943,-7.417 -6.049,-7.417 -3.24,0 -6.049,2.232 -7.057,5.688 l 0,22.034 -5.4,0 0,-20.306 c 0,-4.465 -1.943,-7.417 -6.049,-7.417 -3.24,0 -6.047,2.232 -7.057,5.688 l 0,22.034 -5.4,0 0,-31.971 5.4,0 0,3.744 c 1.584,-2.521 4.682,-4.393 8.641,-4.393 4.033,0 7.129,2.089 8.643,5.112 2.016,-2.876 5.257,-5.109 9.721,-5.109 z"
         id="path107"
         inkscape:connector-curvature="0"
         style="display:inline;fill:#787878" /><path
         display="inline"
         d="m 1534.979,380.735 c -1.152,6.049 -5.688,10.226 -12.889,10.226 -8.713,0 -14.689,-6.697 -14.689,-16.562 0,-9.577 5.832,-16.706 14.545,-16.706 8.785,0 13.465,6.409 13.465,15.697 l 0,1.944 -22.609,0 c 0.072,6.841 3.889,11.018 9.289,11.018 3.961,0 6.912,-2.017 7.777,-5.617 l 5.111,0 z m -22.034,-9.505 16.994,0 c -0.072,-4.752 -2.594,-8.929 -7.922,-8.929 -4.824,0.001 -8.281,3.313 -9.072,8.929 z"
         id="path109"
         inkscape:connector-curvature="0"
         style="display:inline;fill:#787878" /><path
         display="inline"
         d="m 1559.025,363.742 c -0.865,-0.576 -2.232,-0.864 -3.602,-0.864 -3.385,0 -6.336,2.232 -7.416,5.977 l 0,21.458 -5.4,0 0,-31.971 5.4,0 0,4.177 c 1.367,-2.736 4.393,-4.825 7.92,-4.825 1.369,0 2.521,0.217 3.098,0.504 l 0,5.544 z"
         id="path111"
         inkscape:connector-curvature="0"
         style="display:inline;fill:#787878" /><path
         display="inline"
         d="m 1585.953,385.776 c -1.584,2.232 -4.969,4.32 -8.928,4.32 -9.361,0 -14.33,-7.777 -14.33,-16.201 0,-8.497 4.969,-16.202 14.33,-16.202 3.959,0 7.344,2.017 8.928,4.249 l 0,-3.601 5.473,0 0,29.45 c 0,10.514 -6.049,15.482 -14.258,15.482 -7.775,0 -12.672,-4.032 -13.68,-10.585 l 5.328,0 c 0.936,4.032 3.961,5.977 8.352,5.977 5.762,0 8.785,-3.601 8.785,-10.513 l 0,-2.376 z m 0,-18.29 c -1.656,-3.024 -4.68,-4.968 -8.137,-4.968 -6.049,0 -9.576,4.752 -9.576,11.377 0,6.552 3.527,11.305 9.576,11.305 3.457,0 6.48,-1.944 8.137,-4.969 l 0,-12.745 z"
         id="path113"
         inkscape:connector-curvature="0"
         style="display:inline;fill:#787878" /><path
         display="inline"
         d="m 1626.346,380.735 c -1.152,6.049 -5.689,10.226 -12.889,10.226 -8.713,0 -14.689,-6.697 -14.689,-16.562 0,-9.577 5.832,-16.706 14.545,-16.706 8.785,0 13.465,6.409 13.465,15.697 l 0,1.944 -22.609,0 c 0.072,6.841 3.887,11.018 9.289,11.018 3.959,0 6.912,-2.017 7.775,-5.617 l 5.113,0 z m -22.035,-9.505 16.994,0 c -0.072,-4.752 -2.592,-8.929 -7.92,-8.929 -4.824,0.001 -8.281,3.313 -9.074,8.929 z"
         id="path115"
         inkscape:connector-curvature="0"
         style="display:inline;fill:#787878" /><path
         display="inline"
         d="m 1633.975,358.342 5.4,0 0,4.032 c 1.871,-2.521 5.328,-4.681 9.432,-4.681 7.273,0 11.234,4.681 11.234,11.665 l 0,20.954 -5.473,0 0,-20.09 c 0,-4.464 -2.232,-7.561 -7.057,-7.561 -3.744,0 -6.984,2.52 -8.137,5.977 l 0,21.674 -5.4,0 0,-31.97 z"
         id="path117"
         inkscape:connector-curvature="0"
         style="display:inline;fill:#787878" /><path
         display="inline"
         d="m 1681.424,357.693 c 7.199,0 11.736,4.177 12.816,10.297 l -5.545,0 c -0.719,-3.456 -3.455,-5.544 -7.271,-5.544 -5.473,0 -9.072,4.897 -9.072,11.881 0,6.984 3.6,11.881 9.072,11.881 3.816,0 6.553,-2.088 7.271,-5.544 l 5.545,0 c -1.08,6.12 -5.617,10.297 -12.816,10.297 -8.568,0 -14.545,-6.697 -14.545,-16.634 0,-9.936 5.976,-16.634 14.545,-16.634 z"
         id="path119"
         inkscape:connector-curvature="0"
         style="display:inline;fill:#787878" /><path
         display="inline"
         d="m 1703.957,352.149 c -1.871,0 -3.455,-1.584 -3.455,-3.456 0,-1.944 1.584,-3.457 3.455,-3.457 1.945,0 3.529,1.513 3.529,3.457 0,1.872 -1.584,3.456 -3.529,3.456 z m 2.736,38.164 -5.4,0 0,-31.971 5.4,0 0,31.971 z"
         id="path121"
         inkscape:connector-curvature="0"
         style="display:inline;fill:#787878" /><path
         display="inline"
         d="m 1741.617,380.735 c -1.152,6.049 -5.689,10.226 -12.889,10.226 -8.713,0 -14.689,-6.697 -14.689,-16.562 0,-9.577 5.832,-16.706 14.545,-16.706 8.785,0 13.465,6.409 13.465,15.697 l 0,1.944 -22.609,0 c 0.072,6.841 3.887,11.018 9.289,11.018 3.959,0 6.912,-2.017 7.775,-5.617 l 5.113,0 z m -22.035,-9.505 16.994,0 c -0.072,-4.752 -2.592,-8.929 -7.92,-8.929 -4.824,0.001 -8.281,3.313 -9.074,8.929 z"
         id="path123"
         inkscape:connector-curvature="0"
         style="display:inline;fill:#787878" /><path
         display="inline"
         d="m 1752.342,381.527 c 1.008,3.313 3.816,4.896 7.561,4.896 3.816,0 6.553,-1.512 6.553,-4.752 0,-2.232 -1.439,-3.601 -4.752,-4.465 l -6.338,-1.656 c -4.535,-1.151 -7.703,-3.456 -7.703,-8.424 0,-5.688 4.967,-9.434 11.447,-9.434 7.057,0 11.234,3.457 12.387,9.073 l -5.4,0 c -0.938,-2.881 -3.17,-4.536 -7.057,-4.536 -3.17,0 -6.121,1.512 -6.121,4.608 0,2.16 1.439,3.168 4.465,4.032 l 6.191,1.512 c 5.473,1.441 8.137,4.465 8.137,8.929 0,6.049 -5.041,9.65 -11.881,9.65 -6.984,0 -12.098,-3.528 -13.105,-9.434 l 5.616,0 z"
         id="path125"
         inkscape:connector-curvature="0"
         style="display:inline;fill:#787878" /></g></g></svg>