<?xml version="1.0" encoding="UTF-8" standalone="no"?>
<svg
   xmlns:dc="http://purl.org/dc/elements/1.1/"
   xmlns:cc="http://creativecommons.org/ns#"
   xmlns:rdf="http://www.w3.org/1999/02/22-rdf-syntax-ns#"
   xmlns:svg="http://www.w3.org/2000/svg"
   xmlns="http://www.w3.org/2000/svg"
   viewBox="0 0 70.666664 82"
   height="82"
   width="70.666664"
   xml:space="preserve"
   id="svg2"
   version="1.1"><metadata
     id="metadata8"><rdf:RDF><cc:Work
         rdf:about=""><dc:format>image/svg+xml</dc:format><dc:type
           rdf:resource="http://purl.org/dc/dcmitype/StillImage" /></cc:Work></rdf:RDF></metadata><defs
     id="defs6" /><g
     transform="matrix(1.3333333,0,0,-1.3333333,0,82)"
     id="g10"><g
       transform="scale(0.1)"
       id="g12"><path
         id="path14"
         style="fill:#676b6d;fill-opacity:1;fill-rule:nonzero;stroke:none"
         d="m 65,507.5 c 2.5312,0 5.0195,-0.195 7.5,-0.383 V 607.5 c 0,4.141 -3.3594,7.5 -7.5,7.5 -4.1406,0 -7.5,-3.359 -7.5,-7.5 V 507.117 c 2.4805,0.188 4.9688,0.383 7.5,0.383" /><path
         id="path16"
         style="fill:#676b6d;fill-opacity:1;fill-rule:nonzero;stroke:none"
         d="m 65,307.5 c -2.5312,0 -5.0195,0.195 -7.5,0.383 V 7.5 C 57.5,3.35938 60.8594,0 65,0 c 4.1406,0 7.5,3.35938 7.5,7.5 V 307.883 C 70.0195,307.695 67.5312,307.5 65,307.5" /><path
         id="path18"
         style="fill:#676b6d;fill-opacity:1;fill-rule:nonzero;stroke:none"
         d="m 265,307.5 c 2.527,0 5.02,-0.195 7.5,-0.383 V 607.5 c 0,4.141 -3.359,7.5 -7.5,7.5 -4.141,0 -7.5,-3.359 -7.5,-7.5 V 307.117 c 2.48,0.188 4.973,0.383 7.5,0.383" /><path
         id="path20"
         style="fill:#676b6d;fill-opacity:1;fill-rule:nonzero;stroke:none"
         d="m 265,107.5 c -2.527,0 -5.02,0.195 -7.5,0.383 V 7.5 c 0,-4.14062 3.359,-7.5 7.5,-7.5 4.141,0 7.5,3.35938 7.5,7.5 v 100.383 c -2.48,-0.188 -4.973,-0.383 -7.5,-0.383" /><path
         id="path22"
         style="fill:#676b6d;fill-opacity:1;fill-rule:nonzero;stroke:none"
         d="m 465,227.5 c -2.527,0 -5.02,0.195 -7.5,0.383 V 7.5 c 0,-4.14062 3.359,-7.5 7.5,-7.5 4.141,0 7.5,3.35938 7.5,7.5 v 220.383 c -2.48,-0.188 -4.973,-0.383 -7.5,-0.383" /><path
         id="path24"
         style="fill:#676b6d;fill-opacity:1;fill-rule:nonzero;stroke:none"
         d="m 465,427.5 c 2.527,0 5.02,-0.195 7.5,-0.383 V 607.5 c 0,4.141 -3.359,7.5 -7.5,7.5 -4.141,0 -7.5,-3.359 -7.5,-7.5 V 427.117 c 2.48,0.188 4.973,0.383 7.5,0.383" /><path
         id="path26"
         style="fill:#676b6d;fill-opacity:1;fill-rule:nonzero;stroke:none"
         d="m 465,292.5 c -19.297,0 -35,15.703 -35,35 0,19.297 15.703,35 35,35 19.297,0 35,-15.703 35,-35 0,-19.297 -15.703,-35 -35,-35 z m -200,-120 c -19.297,0 -35,15.703 -35,35 0,19.297 15.703,35 35,35 19.297,0 35,-15.703 35,-35 0,-19.297 -15.703,-35 -35,-35 z m -235,235 c 0,19.297 15.7031,35 35,35 19.2969,0 35,-15.703 35,-35 0,-19.297 -15.7031,-35 -35,-35 -19.2969,0 -35,15.703 -35,35 z m 435,-15 c -35.84,0 -65,-29.16 -65,-65 0,-6.855 1.086,-13.457 3.059,-19.668 L 311.465,252.871 C 299.648,264.961 283.191,272.5 265,272.5 c -12.488,0 -24.133,-3.605 -34.055,-9.734 L 120.266,373.445 c 6.129,9.922 9.734,21.567 9.734,34.055 0,35.84 -29.16,65 -65,65 -35.8398,0 -65,-29.16 -65,-65 0,-35.84 29.1602,-65 65,-65 12.4883,0 24.1328,3.605 34.0508,9.734 L 209.734,241.555 C 203.605,231.633 200,219.988 200,207.5 c 0,-35.84 29.16,-65 65,-65 35.84,0 65,29.16 65,65 0,6.855 -1.082,13.457 -3.059,19.668 l 91.594,54.961 C 430.352,270.039 446.809,262.5 465,262.5 c 35.84,0 65,29.16 65,65 0,35.84 -29.16,65 -65,65" /></g></g></svg>