<?xml version="1.0" encoding="UTF-8" standalone="no"?>
<svg
   xmlns:dc="http://purl.org/dc/elements/1.1/"
   xmlns:cc="http://creativecommons.org/ns#"
   xmlns:rdf="http://www.w3.org/1999/02/22-rdf-syntax-ns#"
   xmlns:svg="http://www.w3.org/2000/svg"
   xmlns="http://www.w3.org/2000/svg"
   viewBox="0 0 78.666664 81.333336"
   height="81.333336"
   width="78.666664"
   xml:space="preserve"
   id="svg2"
   version="1.1"><metadata
     id="metadata8"><rdf:RDF><cc:Work
         rdf:about=""><dc:format>image/svg+xml</dc:format><dc:type
           rdf:resource="http://purl.org/dc/dcmitype/StillImage" /></cc:Work></rdf:RDF></metadata><defs
     id="defs6" /><g
     transform="matrix(1.3333333,0,0,-1.3333333,0,81.333333)"
     id="g10"><g
       transform="scale(0.1)"
       id="g12"><path
         id="path14"
         style="fill:#676b6d;fill-opacity:1;fill-rule:nonzero;stroke:none"
         d="m 455,427.5 h -80 c -4.141,0 -7.5,3.359 -7.5,7.5 0,4.141 3.359,7.5 7.5,7.5 h 80 c 4.141,0 7.5,-3.359 7.5,-7.5 0,-4.141 -3.359,-7.5 -7.5,-7.5" /><path
         id="path16"
         style="fill:#676b6d;fill-opacity:1;fill-rule:nonzero;stroke:none"
         d="m 455,387.5 h -80 c -4.141,0 -7.5,3.359 -7.5,7.5 0,4.141 3.359,7.5 7.5,7.5 h 80 c 4.141,0 7.5,-3.359 7.5,-7.5 0,-4.141 -3.359,-7.5 -7.5,-7.5" /><path
         id="path18"
         style="fill:#676b6d;fill-opacity:1;fill-rule:nonzero;stroke:none"
         d="m 455,347.5 h -80 c -4.141,0 -7.5,3.359 -7.5,7.5 0,4.141 3.359,7.5 7.5,7.5 h 80 c 4.141,0 7.5,-3.359 7.5,-7.5 0,-4.141 -3.359,-7.5 -7.5,-7.5" /><path
         id="path20"
         style="fill:#676b6d;fill-opacity:1;fill-rule:nonzero;stroke:none"
         d="M 575,500 H 15 c -8.28125,0 -15,6.719 -15,15 0,8.281 6.71875,15 15,15 h 560 c 8.281,0 15,-6.719 15,-15 0,-8.281 -6.719,-15 -15,-15" /><path
         id="path22"
         style="fill:#676b6d;fill-opacity:1;fill-rule:nonzero;stroke:none"
         d="m 295,540 c -8.281,0 -15,6.719 -15,15 v 40 c 0,8.281 6.719,15 15,15 8.281,0 15,-6.719 15,-15 v -40 c 0,-8.281 -6.719,-15 -15,-15" /><path
         id="path24"
         style="fill:#676b6d;fill-opacity:1;fill-rule:nonzero;stroke:none"
         d="m 225,427.5 c -45.488,0 -82.5,-37.012 -82.5,-82.5 0,-42.969 33.008,-78.359 75,-82.168 V 352.5 h 89.656 c -3.797,41.992 -39.187,75 -82.156,75 z m 7.5,-180 H 225 c -53.762,0 -97.5,43.738 -97.5,97.5 0,53.762 43.738,97.5 97.5,97.5 53.762,0 97.5,-43.738 97.5,-97.5 v -7.5 h -90 v -90" /><path
         id="path26"
         style="fill:#676b6d;fill-opacity:1;fill-rule:nonzero;stroke:none"
         d="m 272.5,297.5 v -74.668 c 39.52,3.586 71.086,35.148 74.656,74.668 z m -7.5,-90 h -7.5 v 105 h 105 V 305 c 0,-53.762 -43.738,-97.5 -97.5,-97.5" /><path
         id="path28"
         style="fill:#676b6d;fill-opacity:1;fill-rule:nonzero;stroke:none"
         d="m 550,455 c 0,8.281 -6.719,15 -15,15 -8.281,0 -15,-6.719 -15,-15 V 170 H 70 v 285 c 0,8.281 -6.7188,15 -15,15 -8.2812,0 -15,-6.719 -15,-15 V 140 H 258.789 L 144.395,25.6055 c -5.86,-5.8594 -5.86,-15.3516 0,-21.21097 5.859,-5.85937 15.351,-5.85937 21.21,0 L 295,133.789 424.395,4.39453 C 427.324,1.46484 431.16,0 435,0 c 3.84,0 7.676,1.46484 10.605,4.39453 5.86,5.85937 5.86,15.35157 0,21.21097 L 331.211,140 H 550 v 315" /></g></g></svg>