<?xml version="1.0" encoding="UTF-8" standalone="no"?>
<svg
   xmlns:dc="http://purl.org/dc/elements/1.1/"
   xmlns:cc="http://creativecommons.org/ns#"
   xmlns:rdf="http://www.w3.org/1999/02/22-rdf-syntax-ns#"
   xmlns:svg="http://www.w3.org/2000/svg"
   xmlns="http://www.w3.org/2000/svg"
   viewBox="0 0 63.306667 98.986664"
   height="98.986664"
   width="63.306667"
   xml:space="preserve"
   id="svg2"
   version="1.1"><metadata
     id="metadata8"><rdf:RDF><cc:Work
         rdf:about=""><dc:format>image/svg+xml</dc:format><dc:type
           rdf:resource="http://purl.org/dc/dcmitype/StillImage" /></cc:Work></rdf:RDF></metadata><defs
     id="defs6"><clipPath
       id="clipPath20"
       clipPathUnits="userSpaceOnUse"><path
         id="path18"
         d="M 0,0 H 474.766 V 742 H 0 Z" /></clipPath></defs><g
     transform="matrix(1.3333333,0,0,-1.3333333,0,98.986667)"
     id="g10"><g
       transform="scale(0.1)"
       id="g12"><g
         id="g14"><g
           clip-path="url(#clipPath20)"
           id="g16"><path
             id="path22"
             style="fill:#676b6d;fill-opacity:1;fill-rule:nonzero;stroke:none"
             d="m 87.3828,0.0195312 c -1.668,0 -3.3672,0.2734378 -5.039,0.8710938 C 74.5391,3.67188 70.4766,12.2578 73.2539,20.0586 L 198.059,370.02 h 81.226 L 401.543,19.9609 C 404.277,12.1484 400.145,3.59375 392.336,0.859375 384.52,-1.90234 375.945,2.24609 373.223,10.0781 L 257.98,340.02 H 219.211 L 101.516,9.98047 C 99.3281,3.84766 93.543,0.0195312 87.3828,0.0195312" /><path
             id="path24"
             style="fill:#676b6d;fill-opacity:1;fill-rule:nonzero;stroke:none"
             d="m 297.383,100.02 h -120 c -8.281,0 -15,6.718 -15,15 0,8.292 6.719,15 15,15 h 120 c 8.293,0 15,-6.708 15,-15 0,-8.282 -6.707,-15 -15,-15" /><path
             id="path26"
             style="fill:#676b6d;fill-opacity:1;fill-rule:nonzero;stroke:none"
             d="m 257.383,220.02 h -40 c -8.281,0 -15,6.718 -15,15 0,8.292 6.719,15 15,15 h 40 c 8.293,0 15,-6.708 15,-15 0,-8.282 -6.707,-15 -15,-15" /><path
             id="path28"
             style="fill:#676b6d;fill-opacity:1;fill-rule:nonzero;stroke:none"
             d="m 237.383,560.02 c -30.321,0 -55,-24.668 -55,-55 0,-30.325 24.679,-55 55,-55 30.32,0 55,24.675 55,55 0,30.332 -24.68,55 -55,55 z m 0,-140 c -46.863,0 -85,38.132 -85,85 0,46.875 38.137,85 85,85 46.863,0 85,-38.125 85,-85 0,-46.868 -38.137,-85 -85,-85" /><path
             id="path30"
             style="fill:#676b6d;fill-opacity:1;fill-rule:nonzero;stroke:none"
             d="m 343.445,391.465 c -1.914,0 -3.836,0.723 -5.3,2.187 -2.93,2.93 -2.93,7.676 0,10.606 26.914,26.914 41.726,62.707 41.726,100.769 0,38.059 -14.82,73.852 -41.726,100.754 -26.907,26.914 -62.684,41.739 -100.75,41.739 h -0.012 c -38.067,0 -73.848,-14.825 -100.762,-41.739 -26.914,-26.914 -41.7265,-62.695 -41.7265,-100.761 0,-38.067 14.8245,-73.848 41.7265,-100.762 2.93,-2.93 2.93,-7.676 0,-10.606 -2.93,-2.929 -7.676,-2.929 -10.605,0 -29.7348,29.746 -46.1215,69.297 -46.1215,111.368 -0.0117,42.07 16.375,81.621 46.1215,111.367 61.406,61.425 161.32,61.414 222.734,0 29.734,-29.739 46.121,-69.285 46.121,-111.36 0.012,-42.078 -16.363,-81.629 -46.121,-111.375 -1.465,-1.464 -3.391,-2.187 -5.305,-2.187" /><path
             id="path32"
             style="fill:#676b6d;fill-opacity:1;fill-rule:nonzero;stroke:none"
             d="m 400.02,334.883 c -1.922,0 -3.836,0.742 -5.301,2.207 -2.934,2.93 -2.934,7.676 0,10.605 86.758,86.746 86.758,227.91 0,314.668 -86.758,86.739 -227.91,86.739 -314.6721,0 -86.74612,-86.758 -86.74612,-227.91 0,-314.668 2.9297,-2.929 2.9297,-7.675 0,-10.605 -2.9297,-2.93 -7.6758,-2.93 -10.6016,0 -92.6015,92.598 -92.6015,243.281 0,335.879 92.5937,92.597 243.2697,92.597 335.8747,0 92.602,-92.61 92.602,-243.281 0,-335.879 -1.465,-1.465 -3.379,-2.207 -5.3,-2.207" /></g></g></g></g></svg>