<?xml version="1.0" encoding="UTF-8"?>
<!-- Generator: Adobe Illustrator 24.0.3, SVG Export Plug-In . SVG Version: 6.00 Build 0)  -->
<svg version="1.1" id="Calque_1" xmlns="http://www.w3.org/2000/svg" xmlns:xlink="http://www.w3.org/1999/xlink" x="0px" y="0px" viewBox="0 0 245.2 53.4" style="enable-background:new 0 0 245.2 53.4;" xml:space="preserve">
<style type="text/css">
	.st0{fill:#4075C3;}
	.st1{fill:#4D4D4D;}
	.st2{fill:#D4D3D1;}
	.st3{fill:#FFFFFF;}
	.st4{fill:#868686;}
</style>
<path class="st0" d="M74.5,31.9h6.9v10.7c0,0.2,0.2,0.5,0.5,0.5h8.8c0.3,0,0.5-0.3,0.5-0.5V11.5c0-0.3-0.2-0.5-0.5-0.5h-8.8  c-0.3,0-0.5,0.2-0.5,0.5V24h-6.9V11.5c0-0.3-0.2-0.5-0.5-0.5h-8.9c-0.2,0-0.5,0.2-0.5,0.5v31.2c0,0.2,0.3,0.5,0.5,0.5h8.8  c0.3,0,0.5-0.3,0.5-0.5L74.5,31.9L74.5,31.9z M107.3,16.9c-8.1,0-13.5,5.4-13.5,13.5s5.5,13.5,13.7,13.5c3.6,0,7.2-1,9.7-2.6  c0.3-0.2,0.3-0.3,0.3-0.5l-2-5.8c0-0.1-0.1-0.2-0.2-0.3H115c-2.1,1-4.8,1.6-7.3,1.6c-4.1,0-4.1-3.1-4.1-3.1V33h15.3  c0.3,0,0.5-0.1,0.5-0.4c0.1-0.6,0.2-1.3,0.2-2.1C119.6,21.9,115,16.9,107.3,16.9z M110.5,28.2h-7v-0.1c0-2.2,1.5-3.6,3.7-3.6  c2,0,3.3,1.5,3.3,3.6C110.5,28.1,110.5,28.2,110.5,28.2z"/>
<path class="st1" d="M131,32.1h0.8l5,10.4c0.2,0.4,0.5,0.7,0.9,0.7h10.1c0.2,0,0.3-0.1,0.4-0.2c0.1-0.1,0-0.2,0-0.3l-7.6-12.3  l0.2-0.1c3.4-1.4,5.7-5.1,5.7-8.9c0-6.3-4.8-10.5-11.9-10.5h-12.4c-0.3,0-0.5,0.3-0.5,0.5v31.2c0,0.2,0.2,0.5,0.5,0.5h8.3  c0.3,0,0.6-0.3,0.6-0.5V32.1H131z M134,24.4h-3v-5.3h3c1.7,0,2.9,1.1,2.9,2.7C136.9,23.3,135.7,24.4,134,24.4z M160.7,37.6h9.1  l1.5,5.1c0.1,0.3,0.5,0.5,0.8,0.5h9.3c0.1,0,0.2,0,0.3-0.1v-0.2L171,11.6c-0.1-0.2-0.5-0.5-1-0.5h-9.6c-0.4,0-0.9,0.3-1,0.5  l-10.6,31.1V43c0,0.1,0.1,0.1,0.3,0.1h9.3c0.4,0,0.7-0.2,0.8-0.5L160.7,37.6z M168,31.2h-5.6l2.8-9.8L168,31.2z M210.2,27.7v14.9  c0,0.2,0.2,0.5,0.5,0.5h8.7c0.3,0,0.5-0.3,0.5-0.5V11.5c0-0.3-0.2-0.5-0.5-0.5h-9.9c-0.5,0-1.2,0.4-1.5,0.9l-6.6,18.3l-6.7-18.5  c-0.2-0.4-0.9-0.8-1.4-0.8h-9.9c-0.3,0-0.5,0.2-0.5,0.5v31.2c0,0.2,0.2,0.5,0.5,0.5h8.7c0.3,0,0.5-0.3,0.5-0.5V27.7l5.1,14.8  c0.1,0.3,0.6,0.6,1,0.6h5.2c0.4,0,0.9-0.3,1-0.6L210.2,27.7z M225.6,33.1c-0.2,0.1-0.3,0.2-0.3,0.4l-3,6.7c-0.1,0.2,0,0.4,0.3,0.6  c2.3,1.9,6.4,3.1,10.4,3.1c7.1,0,12-4.1,12-10.3c0-6.7-5.8-9-9.6-10.5c-2.2-0.8-3.7-1.4-3.7-2.5s1-1.9,2.6-1.9  c1.7,0.1,4.4,1.1,6.7,2.5c0.1,0.1,0.2,0.1,0.3,0.1s0.2-0.2,0.3-0.4l3-6.7c0.1-0.2,0-0.4-0.3-0.6c-3-2-7.2-3.4-10.5-3.4  c-7,0-11.8,4.2-11.8,10.3c0,6.6,5.7,8.9,9.6,10.4c2.2,0.8,3.7,1.5,3.7,2.5c0,1.2-1.1,2-2.7,2c-1.8-0.1-4.4-1-6.6-2.3  C226,33,225.6,33,225.6,33.1z"/>
<path class="st2" d="M49.7,21c0,10.2-16.1,27.8-20.1,32c-0.5,0.5-1.3,0.5-1.8,0c-4-4.3-20.1-21.9-20.1-32c0-11.6,9.4-21,21-21  S49.7,9.4,49.7,21z"/>
<path class="st0" d="M54.4,38.2c0,4-6.1,10.7-8,12.6c-0.3,0.3-0.7,0.3-1,0c-1.8-1.9-8-8.6-8-12.6c0-4.7,3.8-8.5,8.5-8.5  S54.4,33.6,54.4,38.2z"/>
<path class="st3" d="M39.4,17.9h-6.9v-6.8c0-0.7-0.5-1.2-1.2-1.2h-5.1c-0.7,0-1.2,0.5-1.2,1.2v6.8h-6.9c-0.7,0-1.2,0.5-1.2,1.2v5.3  c0,0.7,0.5,1.2,1.2,1.2H25v6.8c0,0.7,0.5,1.2,1.2,1.2h5.1c0.7,0,1.2-0.5,1.2-1.2v-6.7h6.9c0.7,0,1.2-0.5,1.2-1.2v-5.3  C40.6,18.5,40,17.9,39.4,17.9z"/>
<circle class="st3" cx="46" cy="38" r="3.3"/>
<path class="st4" d="M24.7,32.9c0,5.6-8.6,15.2-11.2,18c-0.4,0.4-1.1,0.4-1.5,0c-2.6-2.8-11.2-12.4-11.2-18c0-6.6,5.4-12,12-12  S24.7,26.3,24.7,32.9z"/>
<circle class="st3" cx="12.7" cy="32.6" r="4.7"/>
</svg>